G04 Layer: TopLayer*
G04 EasyEDA v6.4.25, 2022-01-18T14:28:11+01:00*
G04 Gerber Generator version 0.2*
G04 Scale: 100 percent, Rotated: No, Reflected: No *
G04 Dimensions in millimeters *
G04 leading zeros omitted , absolute positions ,4 integer and 5 decimal *
%FSLAX45Y45*%
%MOMM*%

%ADD11C,1.5240*%
%ADD12R,1.5000X3.0000*%
%ADD13C,0.8000*%
%ADD14C,1.7500*%
%ADD15C,1.4000*%

%LPD*%
D11*
G01*
X11996699Y4851400D03*
G01*
X11396700Y4851400D03*
G01*
X11596700Y4851400D03*
G01*
X11796699Y4851400D03*
G01*
X18079999Y8928100D03*
G01*
X17480000Y8928100D03*
G01*
X17680000Y8928100D03*
G01*
X17879999Y8928100D03*
D12*
G01*
X13081000Y5816600D03*
G01*
X13335000Y5816600D03*
G01*
X13589000Y5816600D03*
G01*
X13843000Y5816600D03*
D13*
G01*
X14351000Y5816600D03*
D12*
G01*
X14605000Y5816600D03*
G01*
X14859000Y5816600D03*
G01*
X15113000Y5816600D03*
G01*
X15367000Y5816600D03*
G01*
X15621000Y5816600D03*
G01*
X15875000Y5816600D03*
G01*
X16129000Y5816600D03*
G01*
X16383000Y5816600D03*
G01*
X13081000Y7848600D03*
G01*
X13335000Y7848600D03*
G01*
X13589000Y7848600D03*
G01*
X13843000Y7848600D03*
G01*
X14097000Y7848600D03*
G01*
X14351000Y7848600D03*
G01*
X14605000Y7848600D03*
G01*
X14859000Y7848600D03*
G01*
X15113000Y7848600D03*
G01*
X15367000Y7848600D03*
G01*
X15621000Y7848600D03*
G01*
X15875000Y7848600D03*
G01*
X16129000Y7848600D03*
G01*
X16383000Y7848600D03*
D13*
G01*
X14097000Y5816600D03*
D11*
G01*
X12908000Y8928100D03*
G01*
X13108000Y8928100D03*
G01*
X13307999Y8928100D03*
G01*
X13507999Y8928100D03*
G01*
X14444700Y8928100D03*
G01*
X14644700Y8928100D03*
G01*
X14844699Y8928100D03*
G01*
X15044699Y8928100D03*
G01*
X15956000Y8928100D03*
G01*
X16156000Y8928100D03*
G01*
X16355999Y8928100D03*
G01*
X16555999Y8928100D03*
D14*
G01*
X17246600Y4813300D03*
G01*
X17500600Y4813300D03*
D15*
G01*
X13093700Y5080000D03*
G01*
X12890500Y5080000D03*
G01*
X13589000Y5080000D03*
G01*
X13779500Y5080000D03*
G01*
X14376400Y5080000D03*
G01*
X14592300Y5080000D03*
G01*
X15062200Y5080000D03*
G01*
X15265400Y5080000D03*
M02*
