M48
METRIC,LZ,000.000
;FILE_FORMAT=3:3
;TYPE=PLATED
;Layer: Drill PTH
;EasyEDA v6.4.25, 2022-01-18T14:28:11+01:00
;10
;Gerber Generator version 0.2
;Holesize 1 = 0.762 mm
T01C0.762
;Holesize 2 = 0.800 mm
T02C0.800
;Holesize 3 = 0.900 mm
T03C0.900
;Holesize 4 = 0.901 mm
T04C0.901
%
G05
G90
T01
X119966Y048511G85X119966Y048517
X113967Y048511G85X113967Y048517
X115966Y048511G85X115966Y048517
X117968Y048511G85X117968Y048517
X180799Y089278G85X180799Y089284
X174800Y089278G85X174800Y089284
X176799Y089278G85X176799Y089284
X178801Y089278G85X178801Y089284
X129080Y089278G85X129080Y089284
X131079Y089278G85X131079Y089284
X133081Y089278G85X133081Y089284
X135079Y089278G85X135079Y089284
X144447Y089278G85X144447Y089284
X146446Y089278G85X146446Y089284
X148448Y089278G85X148448Y089284
X150446Y089278G85X150446Y089284
X159560Y089278G85X159560Y089284
X161559Y089278G85X161559Y089284
X163561Y089278G85X163561Y089284
X165559Y089278G85X165559Y089284
T02
X130937Y050800G85X130937Y050800
X128905Y050803G85X128905Y050797
X135890Y050803G85X135890Y050797
X137795Y050800G85X137795Y050800
X143764Y050803G85X143764Y050797
X145923Y050803G85X145923Y050797
X150622Y050803G85X150622Y050797
X152654Y050803G85X152654Y050797
T03
X140970Y058169G85X140970Y058163
T04
X130810Y058166G85X130810Y058166
X133350Y058166G85X133350Y058166
X135890Y058166G85X135890Y058166
X138430Y058166G85X138430Y058166
X143510Y058166G85X143510Y058166
X146050Y058166G85X146050Y058166
X148590Y058166G85X148590Y058166
X151130Y058166G85X151130Y058166
X153670Y058166G85X153670Y058166
X156210Y058166G85X156210Y058166
X158750Y058166G85X158750Y058166
X161290Y058166G85X161290Y058166
X163830Y058166G85X163830Y058166
X130810Y078486G85X130810Y078486
X133350Y078486G85X133350Y078486
X135890Y078486G85X135890Y078486
X138430Y078486G85X138430Y078486
X140970Y078486G85X140970Y078486
X143510Y078486G85X143510Y078486
X146050Y078486G85X146050Y078486
X148590Y078486G85X148590Y078486
X151130Y078486G85X151130Y078486
X153670Y078486G85X153670Y078486
X156210Y078486G85X156210Y078486
X158750Y078486G85X158750Y078486
X161290Y078486G85X161290Y078486
X163830Y078486G85X163830Y078486
X172466Y048133G85X172466Y048133
X175006Y048133G85X175006Y048133
M30
