G04 Layer: BottomLayer*
G04 EasyEDA v6.4.25, 2021-11-24T08:33:18+01:00*
G04 bd25dea3b5db44dbbe4f44f780b62c0e,10*
G04 Gerber Generator version 0.2*
G04 Scale: 100 percent, Rotated: No, Reflected: No *
G04 Dimensions in millimeters *
G04 leading zeros omitted , absolute positions ,4 integer and 5 decimal *
%FSLAX45Y45*%
%MOMM*%

%ADD11C,1.5240*%
%ADD12R,1.5000X3.0000*%
%ADD13C,1.7500*%
%ADD14C,1.4000*%
%ADD15C,0.7000*%
%ADD16C,1.0000*%
%ADD17C,0.2032*%

%LPD*%
G36*
X10049459Y4038600D02*
G01*
X10045598Y4039362D01*
X10042296Y4041546D01*
X10040112Y4044848D01*
X10039299Y4048709D01*
X10025888Y8223453D01*
X10025888Y9963912D01*
X10026700Y9967823D01*
X10028885Y9971125D01*
X10032187Y9973310D01*
X10036048Y9974072D01*
X21463914Y9974072D01*
X21467826Y9973310D01*
X21471128Y9971125D01*
X21473312Y9967823D01*
X21474074Y9963912D01*
X21474074Y4048760D01*
X21473312Y4044848D01*
X21471128Y4041597D01*
X21467826Y4039362D01*
X21463914Y4038600D01*
G37*

%LPC*%
G36*
X16308578Y7672679D02*
G01*
X16457422Y7672679D01*
X16463772Y7673390D01*
X16469207Y7675321D01*
X16474135Y7678420D01*
X16478199Y7682484D01*
X16481298Y7687411D01*
X16483177Y7692847D01*
X16483888Y7699146D01*
X16483888Y7998053D01*
X16483177Y8004352D01*
X16481298Y8009788D01*
X16478199Y8014716D01*
X16474135Y8018780D01*
X16469207Y8021878D01*
X16463772Y8023809D01*
X16457422Y8024520D01*
X16308578Y8024520D01*
X16302228Y8023809D01*
X16296792Y8021878D01*
X16291864Y8018780D01*
X16287800Y8014716D01*
X16284701Y8009788D01*
X16282822Y8004352D01*
X16282111Y7998053D01*
X16282111Y7699146D01*
X16282822Y7692847D01*
X16284701Y7687411D01*
X16287800Y7682484D01*
X16291864Y7678420D01*
X16296792Y7675321D01*
X16302228Y7673390D01*
G37*
G36*
X10729722Y9467850D02*
G01*
X10777474Y9467850D01*
X10777474Y9515043D01*
X10769854Y9511233D01*
X10758627Y9503511D01*
X10748518Y9494367D01*
X10739729Y9483953D01*
X10732363Y9472472D01*
X10731144Y9469831D01*
G37*
G36*
X11938304Y4384090D02*
G01*
X12318695Y4384090D01*
X12326721Y4384598D01*
X12328804Y4384903D01*
X12336576Y4386681D01*
X12345924Y4390390D01*
X12347803Y4391355D01*
X12356236Y4396790D01*
X12362281Y4402175D01*
X12488824Y4528718D01*
X12494209Y4534763D01*
X12499644Y4543196D01*
X12500610Y4545076D01*
X12504318Y4554423D01*
X12506096Y4562195D01*
X12506401Y4564278D01*
X12506909Y4572304D01*
X12506909Y4910886D01*
X12507671Y4914747D01*
X12509906Y4918049D01*
X12607950Y5016093D01*
X12611252Y5018328D01*
X12615113Y5019090D01*
X12811912Y5019090D01*
X12816281Y5018125D01*
X12820446Y5014569D01*
X12829997Y5005628D01*
X12840665Y4998059D01*
X12852298Y4992065D01*
X12864642Y4987696D01*
X12877444Y4985004D01*
X12890500Y4984140D01*
X12903555Y4985004D01*
X12916357Y4987696D01*
X12928701Y4992065D01*
X12940334Y4998059D01*
X12951002Y5005628D01*
X12960553Y5014569D01*
X12968833Y5024729D01*
X12975640Y5035905D01*
X12980873Y5047894D01*
X12982295Y5053126D01*
X12984378Y5056987D01*
X12987832Y5059629D01*
X12992100Y5060543D01*
X12996367Y5059629D01*
X12999821Y5056987D01*
X13001904Y5053126D01*
X13003377Y5047894D01*
X13008559Y5035905D01*
X13015366Y5024729D01*
X13023646Y5014569D01*
X13033197Y5005628D01*
X13043865Y4998059D01*
X13055498Y4992065D01*
X13067842Y4987696D01*
X13080644Y4985004D01*
X13093700Y4984140D01*
X13106755Y4985004D01*
X13119557Y4987696D01*
X13131901Y4992065D01*
X13143534Y4998059D01*
X13154202Y5005628D01*
X13163753Y5014569D01*
X13167918Y5018125D01*
X13172287Y5019090D01*
X13510412Y5019090D01*
X13514781Y5018125D01*
X13518946Y5014569D01*
X13528497Y5005628D01*
X13539165Y4998059D01*
X13550798Y4992065D01*
X13563142Y4987696D01*
X13575944Y4985004D01*
X13589000Y4984140D01*
X13602055Y4985004D01*
X13614857Y4987696D01*
X13627201Y4992065D01*
X13638834Y4998059D01*
X13649502Y5005628D01*
X13659053Y5014569D01*
X13667333Y5024729D01*
X13674140Y5035905D01*
X13674953Y5037734D01*
X13677138Y5040934D01*
X13680440Y5043068D01*
X13681760Y5043322D01*
X13681049Y5044236D01*
X13680033Y5047843D01*
X13680389Y5051552D01*
X13682878Y5060492D01*
X13684656Y5073446D01*
X13684656Y5086553D01*
X13682878Y5099507D01*
X13680389Y5108448D01*
X13680033Y5112156D01*
X13681049Y5115763D01*
X13681760Y5116677D01*
X13680440Y5116931D01*
X13677138Y5119065D01*
X13674953Y5122265D01*
X13674140Y5124094D01*
X13667333Y5135270D01*
X13659053Y5145430D01*
X13649502Y5154371D01*
X13644473Y5157927D01*
X13641628Y5161026D01*
X13640257Y5165090D01*
X13640663Y5169306D01*
X13642746Y5172964D01*
X13646200Y5175504D01*
X13650366Y5176367D01*
X13718133Y5176367D01*
X13722299Y5175504D01*
X13725753Y5172964D01*
X13727836Y5169306D01*
X13728242Y5165090D01*
X13726871Y5161026D01*
X13724026Y5157927D01*
X13718997Y5154371D01*
X13709446Y5145430D01*
X13701166Y5135270D01*
X13694359Y5124094D01*
X13692936Y5121351D01*
X13738148Y5121351D01*
X13738148Y5166207D01*
X13738910Y5170119D01*
X13741146Y5173421D01*
X13744397Y5175605D01*
X13748308Y5176367D01*
X13763701Y5176367D01*
X13770000Y5177078D01*
X13775486Y5179009D01*
X13780363Y5182108D01*
X13784478Y5186172D01*
X13787526Y5191099D01*
X13789456Y5196535D01*
X13790168Y5202885D01*
X13790168Y5317490D01*
X13789456Y5323840D01*
X13787526Y5329275D01*
X13784478Y5334203D01*
X13780363Y5338267D01*
X13775486Y5341366D01*
X13770000Y5343245D01*
X13763701Y5343956D01*
X13587222Y5343956D01*
X13580922Y5343245D01*
X13575436Y5341366D01*
X13570559Y5338267D01*
X13566444Y5334203D01*
X13563396Y5329275D01*
X13561466Y5323840D01*
X13560755Y5317490D01*
X13560755Y5202885D01*
X13561466Y5196535D01*
X13563396Y5191099D01*
X13566241Y5186578D01*
X13567714Y5182311D01*
X13567206Y5177840D01*
X13564819Y5173980D01*
X13561009Y5171592D01*
X13550798Y5167934D01*
X13539165Y5161940D01*
X13528497Y5154371D01*
X13518946Y5145430D01*
X13514781Y5141874D01*
X13510412Y5140909D01*
X13406069Y5140909D01*
X13402157Y5141671D01*
X13398906Y5143906D01*
X13396671Y5147157D01*
X13395909Y5151069D01*
X13395909Y5630519D01*
X13396671Y5634431D01*
X13398906Y5637733D01*
X13402157Y5639917D01*
X13406069Y5640679D01*
X13409422Y5640679D01*
X13415772Y5641390D01*
X13421207Y5643321D01*
X13426135Y5646420D01*
X13430199Y5650484D01*
X13433298Y5655411D01*
X13435177Y5660847D01*
X13435888Y5667146D01*
X13435888Y5966053D01*
X13435177Y5972352D01*
X13433298Y5977788D01*
X13430199Y5982716D01*
X13426135Y5986780D01*
X13421207Y5989878D01*
X13415772Y5991809D01*
X13409422Y5992520D01*
X13260578Y5992520D01*
X13254228Y5991809D01*
X13248792Y5989878D01*
X13243864Y5986780D01*
X13239800Y5982716D01*
X13236701Y5977788D01*
X13234822Y5972352D01*
X13234111Y5966053D01*
X13234111Y5667146D01*
X13234822Y5660847D01*
X13236701Y5655411D01*
X13239800Y5650484D01*
X13243864Y5646420D01*
X13248792Y5643321D01*
X13254228Y5641390D01*
X13260578Y5640679D01*
X13263930Y5640679D01*
X13267842Y5639917D01*
X13271093Y5637733D01*
X13273328Y5634431D01*
X13274090Y5630519D01*
X13274090Y5151069D01*
X13273328Y5147157D01*
X13271093Y5143906D01*
X13267842Y5141671D01*
X13263930Y5140909D01*
X13172287Y5140909D01*
X13167918Y5141874D01*
X13163753Y5145430D01*
X13154202Y5154371D01*
X13143534Y5161940D01*
X13131901Y5167934D01*
X13119557Y5172303D01*
X13106755Y5174996D01*
X13093700Y5175859D01*
X13086994Y5175402D01*
X13082574Y5176113D01*
X13078917Y5178602D01*
X13076631Y5182412D01*
X13076224Y5186832D01*
X13077698Y5191048D01*
X13081863Y5194808D01*
X13085978Y5198872D01*
X13089026Y5203799D01*
X13090956Y5209235D01*
X13091668Y5215585D01*
X13091668Y5330190D01*
X13090956Y5336540D01*
X13089026Y5341975D01*
X13085978Y5346903D01*
X13081863Y5350967D01*
X13076986Y5354066D01*
X13071500Y5355945D01*
X13065201Y5356656D01*
X12884200Y5356656D01*
X12877850Y5355945D01*
X12872415Y5354066D01*
X12867487Y5350967D01*
X12863423Y5346903D01*
X12860324Y5341975D01*
X12858445Y5336540D01*
X12857734Y5330190D01*
X12857734Y5215585D01*
X12858445Y5209235D01*
X12860324Y5203799D01*
X12863423Y5198872D01*
X12867487Y5194808D01*
X12872313Y5191760D01*
X12875209Y5189016D01*
X12876834Y5185359D01*
X12876885Y5181396D01*
X12875412Y5177637D01*
X12872618Y5174792D01*
X12868960Y5173218D01*
X12864642Y5172303D01*
X12852298Y5167934D01*
X12840665Y5161940D01*
X12829997Y5154371D01*
X12820446Y5145430D01*
X12816281Y5141874D01*
X12811912Y5140909D01*
X12586004Y5140909D01*
X12577978Y5140401D01*
X12575895Y5140096D01*
X12568123Y5138318D01*
X12558776Y5134610D01*
X12556896Y5133644D01*
X12548463Y5128209D01*
X12542418Y5122824D01*
X12403175Y4983581D01*
X12397790Y4977536D01*
X12392355Y4969103D01*
X12391390Y4967224D01*
X12387681Y4957876D01*
X12385903Y4950104D01*
X12385598Y4948021D01*
X12385090Y4939995D01*
X12385090Y4601413D01*
X12384328Y4597552D01*
X12382093Y4594250D01*
X12296749Y4508906D01*
X12293447Y4506671D01*
X12289586Y4505909D01*
X11967413Y4505909D01*
X11963552Y4506671D01*
X11960250Y4508906D01*
X11860580Y4608576D01*
X11858396Y4611827D01*
X11857583Y4615738D01*
X11857583Y4764735D01*
X11858040Y4767783D01*
X11859412Y4770475D01*
X11861495Y4772710D01*
X11865203Y4775708D01*
X11874703Y4785512D01*
X11882780Y4796485D01*
X11887809Y4805578D01*
X11890603Y4808829D01*
X11894566Y4810607D01*
X11895937Y4810607D01*
X11894261Y4813096D01*
X11893448Y4816906D01*
X11894261Y4821174D01*
X11897410Y4834432D01*
X11898782Y4847996D01*
X11898325Y4861610D01*
X11896039Y4875072D01*
X11893702Y4882692D01*
X11893245Y4886452D01*
X11894261Y4890109D01*
X11895734Y4892141D01*
X11892940Y4892700D01*
X11889740Y4894732D01*
X11887504Y4897831D01*
X11886285Y4900472D01*
X11878919Y4911953D01*
X11870131Y4922367D01*
X11860022Y4931511D01*
X11848795Y4939233D01*
X11836603Y4945380D01*
X11823700Y4949850D01*
X11810339Y4952593D01*
X11796776Y4953508D01*
X11783161Y4952593D01*
X11769801Y4949850D01*
X11756898Y4945380D01*
X11744706Y4939233D01*
X11733479Y4931511D01*
X11723370Y4922367D01*
X11714581Y4911953D01*
X11707215Y4900472D01*
X11705894Y4897577D01*
X11703659Y4894478D01*
X11700408Y4892395D01*
X11697919Y4891938D01*
X11699240Y4890109D01*
X11700256Y4886452D01*
X11699798Y4882692D01*
X11697462Y4875072D01*
X11695176Y4861610D01*
X11694718Y4847996D01*
X11696090Y4834432D01*
X11699392Y4820767D01*
X11700052Y4816906D01*
X11699240Y4813096D01*
X11697716Y4810861D01*
X11698833Y4810861D01*
X11702745Y4809083D01*
X11705590Y4805832D01*
X11710720Y4796485D01*
X11718798Y4785512D01*
X11728297Y4775708D01*
X11731904Y4772812D01*
X11733987Y4770577D01*
X11735358Y4767834D01*
X11735816Y4764836D01*
X11735816Y4586630D01*
X11736273Y4578553D01*
X11736578Y4576470D01*
X11739016Y4566716D01*
X11742064Y4559350D01*
X11747246Y4550765D01*
X11748516Y4549038D01*
X11753850Y4542993D01*
X11894718Y4402175D01*
X11900763Y4396790D01*
X11909196Y4391355D01*
X11911076Y4390390D01*
X11920423Y4386681D01*
X11928195Y4384903D01*
X11930278Y4384598D01*
G37*
G36*
X10666476Y9467850D02*
G01*
X10714177Y9467850D01*
X10712754Y9469831D01*
X10711535Y9472472D01*
X10704169Y9483953D01*
X10695381Y9494367D01*
X10685272Y9503511D01*
X10674045Y9511233D01*
X10666476Y9515043D01*
G37*
G36*
X17246600Y4699914D02*
G01*
X17261078Y4700828D01*
X17275352Y4703622D01*
X17289170Y4708194D01*
X17302226Y4714494D01*
X17314418Y4722418D01*
X17325492Y4731867D01*
X17335246Y4742586D01*
X17343577Y4754524D01*
X17350282Y4767427D01*
X17355312Y4781042D01*
X17358512Y4795215D01*
X17359934Y4809642D01*
X17359477Y4824171D01*
X17357140Y4838547D01*
X17353026Y4852466D01*
X17347133Y4865725D01*
X17339614Y4878171D01*
X17330521Y4889550D01*
X17320107Y4899660D01*
X17308474Y4908346D01*
X17295774Y4915458D01*
X17282312Y4920894D01*
X17268291Y4924602D01*
X17253864Y4926431D01*
X17239335Y4926431D01*
X17224908Y4924602D01*
X17210887Y4920894D01*
X17197425Y4915458D01*
X17184725Y4908346D01*
X17173092Y4899660D01*
X17165269Y4892090D01*
X17162018Y4889957D01*
X17158208Y4889195D01*
X16774261Y4889195D01*
X16770350Y4889957D01*
X16767048Y4892192D01*
X16461892Y5197348D01*
X16459657Y5200650D01*
X16458895Y5204561D01*
X16458895Y5632500D01*
X16459758Y5636564D01*
X16462146Y5639968D01*
X16465702Y5642102D01*
X16469207Y5643321D01*
X16474135Y5646420D01*
X16478199Y5650484D01*
X16481298Y5655411D01*
X16483177Y5660847D01*
X16483888Y5667146D01*
X16483888Y5966053D01*
X16483177Y5972352D01*
X16481298Y5977788D01*
X16478199Y5982716D01*
X16474135Y5986780D01*
X16469207Y5989878D01*
X16463772Y5991809D01*
X16457422Y5992520D01*
X16308578Y5992520D01*
X16302228Y5991809D01*
X16296792Y5989878D01*
X16291864Y5986780D01*
X16287800Y5982716D01*
X16284701Y5977788D01*
X16282822Y5972352D01*
X16282111Y5966053D01*
X16282111Y5667146D01*
X16282822Y5660847D01*
X16284701Y5655411D01*
X16287800Y5650484D01*
X16291864Y5646420D01*
X16296792Y5643321D01*
X16300297Y5642102D01*
X16303853Y5639968D01*
X16306241Y5636564D01*
X16307104Y5632500D01*
X16307155Y5166258D01*
X16307968Y5157419D01*
X16308374Y5154980D01*
X16310508Y5146344D01*
X16311270Y5144008D01*
X16314674Y5135778D01*
X16315791Y5133594D01*
X16320414Y5125974D01*
X16327475Y5117134D01*
X16686834Y4757775D01*
X16695674Y4750714D01*
X16703294Y4746091D01*
X16705478Y4744974D01*
X16713707Y4741570D01*
X16716044Y4740808D01*
X16724680Y4738674D01*
X16727119Y4738268D01*
X16735958Y4737455D01*
X17158208Y4737404D01*
X17162322Y4736541D01*
X17165726Y4734052D01*
X17167707Y4731867D01*
X17178782Y4722418D01*
X17190974Y4714494D01*
X17204029Y4708194D01*
X17217847Y4703622D01*
X17232122Y4700828D01*
G37*
G36*
X17450511Y4711852D02*
G01*
X17450511Y4763211D01*
X17399101Y4763211D01*
X17403622Y4754524D01*
X17411954Y4742586D01*
X17421707Y4731867D01*
X17432782Y4722418D01*
X17444974Y4714494D01*
G37*
G36*
X17550688Y4711852D02*
G01*
X17556226Y4714494D01*
X17568418Y4722418D01*
X17579492Y4731867D01*
X17589246Y4742586D01*
X17597577Y4754524D01*
X17602098Y4763211D01*
X17550688Y4763211D01*
G37*
G36*
X12041124Y4759604D02*
G01*
X12042698Y4760264D01*
X12054433Y4767224D01*
X12065101Y4775708D01*
X12074601Y4785512D01*
X12082678Y4796485D01*
X12088418Y4806950D01*
X12041124Y4806950D01*
G37*
G36*
X11641074Y4759604D02*
G01*
X11642648Y4760264D01*
X11654383Y4767224D01*
X11665051Y4775708D01*
X11674551Y4785512D01*
X11682628Y4796485D01*
X11687759Y4805832D01*
X11688775Y4806950D01*
X11641074Y4806950D01*
G37*
G36*
X11552174Y4759604D02*
G01*
X11552174Y4806950D01*
X11504371Y4806950D01*
X11505539Y4805578D01*
X11510568Y4796485D01*
X11518646Y4785512D01*
X11528145Y4775708D01*
X11538813Y4767224D01*
X11550548Y4760264D01*
G37*
G36*
X11952224Y4759604D02*
G01*
X11952224Y4806950D01*
X11904421Y4806950D01*
X11905589Y4805578D01*
X11910618Y4796485D01*
X11918696Y4785512D01*
X11928195Y4775708D01*
X11938863Y4767224D01*
X11950598Y4760264D01*
G37*
G36*
X17550688Y4863388D02*
G01*
X17602149Y4863388D01*
X17601133Y4865725D01*
X17593614Y4878171D01*
X17584521Y4889550D01*
X17574107Y4899660D01*
X17562474Y4908346D01*
X17550688Y4914950D01*
G37*
G36*
X17399050Y4863388D02*
G01*
X17450511Y4863388D01*
X17450511Y4914950D01*
X17438725Y4908346D01*
X17427092Y4899660D01*
X17416678Y4889550D01*
X17407585Y4878171D01*
X17400066Y4865725D01*
G37*
G36*
X10866374Y9467850D02*
G01*
X10914024Y9467850D01*
X10911433Y9472472D01*
X10904067Y9483953D01*
X10895279Y9494367D01*
X10885170Y9503511D01*
X10873943Y9511233D01*
X10866374Y9515043D01*
G37*
G36*
X12041124Y4895850D02*
G01*
X12088317Y4895850D01*
X12086183Y4900472D01*
X12078817Y4911953D01*
X12070029Y4922367D01*
X12059920Y4931511D01*
X12048693Y4939233D01*
X12041124Y4943043D01*
G37*
G36*
X11641074Y4895850D02*
G01*
X11688724Y4895850D01*
X11686133Y4900472D01*
X11678767Y4911953D01*
X11669979Y4922367D01*
X11659870Y4931511D01*
X11648643Y4939233D01*
X11641074Y4943043D01*
G37*
G36*
X11504422Y4895850D02*
G01*
X11552174Y4895850D01*
X11552174Y4943043D01*
X11544554Y4939233D01*
X11533327Y4931511D01*
X11523218Y4922367D01*
X11514429Y4911953D01*
X11507063Y4900472D01*
X11505844Y4897831D01*
G37*
G36*
X11904472Y4895850D02*
G01*
X11952224Y4895850D01*
X11952224Y4943043D01*
X11944604Y4939233D01*
X11933377Y4931511D01*
X11923268Y4922367D01*
X11914479Y4911953D01*
X11907113Y4900472D01*
X11905894Y4897831D01*
G37*
G36*
X17241062Y4960467D02*
G01*
X17497501Y4960467D01*
X17503800Y4961178D01*
X17509286Y4963109D01*
X17514163Y4966208D01*
X17518278Y4970272D01*
X17521326Y4975199D01*
X17523256Y4980635D01*
X17523968Y4986985D01*
X17523968Y5101590D01*
X17523256Y5107940D01*
X17521326Y5113375D01*
X17518278Y5118303D01*
X17514163Y5122367D01*
X17509286Y5125466D01*
X17503800Y5127345D01*
X17497501Y5128056D01*
X17241062Y5128056D01*
X17234712Y5127345D01*
X17229277Y5125466D01*
X17224349Y5122367D01*
X17220285Y5118303D01*
X17217186Y5113375D01*
X17215256Y5107940D01*
X17214545Y5101590D01*
X17214545Y4986985D01*
X17215256Y4980635D01*
X17217186Y4975199D01*
X17220285Y4970272D01*
X17224349Y4966208D01*
X17229277Y4963109D01*
X17234712Y4961178D01*
G37*
G36*
X10530332Y9467850D02*
G01*
X10577576Y9467850D01*
X10577576Y9515043D01*
X10569956Y9511233D01*
X10558729Y9503511D01*
X10548620Y9494367D01*
X10539831Y9483953D01*
X10532465Y9472472D01*
G37*
G36*
X10777474Y9331604D02*
G01*
X10777474Y9378950D01*
X10729671Y9378950D01*
X10730839Y9377578D01*
X10735868Y9368485D01*
X10743946Y9357512D01*
X10753445Y9347708D01*
X10764113Y9339224D01*
X10775848Y9332264D01*
G37*
G36*
X10666476Y9331604D02*
G01*
X10668050Y9332264D01*
X10679785Y9339224D01*
X10690453Y9347708D01*
X10699953Y9357512D01*
X10708030Y9368485D01*
X10713059Y9377578D01*
X10714228Y9378950D01*
X10666476Y9378950D01*
G37*
G36*
X10866374Y9331604D02*
G01*
X10867948Y9332264D01*
X10879683Y9339224D01*
X10890351Y9347708D01*
X10899851Y9357512D01*
X10907928Y9368485D01*
X10913059Y9377832D01*
X10914075Y9378950D01*
X10866374Y9378950D01*
G37*
G36*
X10577576Y9331604D02*
G01*
X10577576Y9378950D01*
X10530230Y9378950D01*
X10535970Y9368485D01*
X10544048Y9357512D01*
X10553547Y9347708D01*
X10564215Y9339224D01*
X10575950Y9332264D01*
G37*
G36*
X11015218Y9321546D02*
G01*
X11028883Y9321546D01*
X11042396Y9323374D01*
X11055553Y9326981D01*
X11068100Y9332264D01*
X11079835Y9339224D01*
X11090503Y9347708D01*
X11100003Y9357512D01*
X11108080Y9368485D01*
X11113109Y9377578D01*
X11115903Y9380829D01*
X11119866Y9382607D01*
X11124133Y9382607D01*
X11128095Y9380829D01*
X11130889Y9377578D01*
X11135918Y9368485D01*
X11143996Y9357512D01*
X11153495Y9347708D01*
X11164163Y9339224D01*
X11175898Y9332264D01*
X11188446Y9326981D01*
X11201603Y9323374D01*
X11215116Y9321546D01*
X11228781Y9321546D01*
X11242294Y9323374D01*
X11255451Y9326981D01*
X11267998Y9332264D01*
X11279733Y9339224D01*
X11290401Y9347708D01*
X11299901Y9357512D01*
X11307978Y9368485D01*
X11314531Y9380423D01*
X11319459Y9393174D01*
X11322608Y9406432D01*
X11323980Y9419996D01*
X11323523Y9433610D01*
X11321237Y9447072D01*
X11317224Y9460077D01*
X11311483Y9472472D01*
X11304117Y9483953D01*
X11295329Y9494367D01*
X11285220Y9503511D01*
X11273993Y9511233D01*
X11261801Y9517380D01*
X11248898Y9521850D01*
X11235537Y9524593D01*
X11221974Y9525508D01*
X11208359Y9524593D01*
X11194999Y9521850D01*
X11182096Y9517380D01*
X11169904Y9511233D01*
X11158677Y9503511D01*
X11148568Y9494367D01*
X11139779Y9483953D01*
X11132413Y9472472D01*
X11131194Y9469831D01*
X11128959Y9466732D01*
X11125758Y9464700D01*
X11121999Y9463989D01*
X11118240Y9464700D01*
X11115040Y9466732D01*
X11112804Y9469831D01*
X11111585Y9472472D01*
X11104219Y9483953D01*
X11095431Y9494367D01*
X11085322Y9503511D01*
X11074095Y9511233D01*
X11061903Y9517380D01*
X11049000Y9521850D01*
X11035639Y9524593D01*
X11022076Y9525508D01*
X11008461Y9524593D01*
X10995101Y9521850D01*
X10982198Y9517380D01*
X10970006Y9511233D01*
X10958779Y9503511D01*
X10948670Y9494367D01*
X10939881Y9483953D01*
X10932515Y9472472D01*
X10931194Y9469577D01*
X10928959Y9466478D01*
X10925708Y9464395D01*
X10923219Y9463938D01*
X10924540Y9462109D01*
X10925556Y9458452D01*
X10925098Y9454692D01*
X10922762Y9447072D01*
X10920476Y9433610D01*
X10920018Y9419996D01*
X10921390Y9406432D01*
X10924692Y9392767D01*
X10925352Y9388906D01*
X10924540Y9385096D01*
X10923016Y9382861D01*
X10924133Y9382861D01*
X10928045Y9381083D01*
X10930890Y9377832D01*
X10936020Y9368485D01*
X10944098Y9357512D01*
X10953597Y9347708D01*
X10964265Y9339224D01*
X10976000Y9332264D01*
X10988548Y9326981D01*
X11001705Y9323374D01*
G37*
G36*
X13820851Y4993690D02*
G01*
X13829334Y4998059D01*
X13840002Y5005628D01*
X13849553Y5014569D01*
X13857833Y5024729D01*
X13864640Y5035905D01*
X13865809Y5038648D01*
X13820851Y5038648D01*
G37*
G36*
X14417751Y4993690D02*
G01*
X14426234Y4998059D01*
X14436902Y5005628D01*
X14446453Y5014569D01*
X14454733Y5024729D01*
X14461540Y5035905D01*
X14462709Y5038648D01*
X14417751Y5038648D01*
G37*
G36*
X14335048Y4993690D02*
G01*
X14335048Y5038648D01*
X14290090Y5038648D01*
X14291259Y5035905D01*
X14298066Y5024729D01*
X14306346Y5014569D01*
X14315897Y5005628D01*
X14326565Y4998059D01*
G37*
G36*
X13738148Y4993690D02*
G01*
X13738148Y5038648D01*
X13692936Y5038648D01*
X13694359Y5035905D01*
X13701166Y5024729D01*
X13709446Y5014569D01*
X13718997Y5005628D01*
X13729665Y4998059D01*
G37*
G36*
X17296790Y9233306D02*
G01*
X18234101Y9233306D01*
X18240400Y9234017D01*
X18245886Y9235948D01*
X18250763Y9238996D01*
X18254878Y9243110D01*
X18257926Y9247987D01*
X18259856Y9253474D01*
X18260568Y9259773D01*
X18260568Y9472930D01*
X18259856Y9479280D01*
X18257926Y9484715D01*
X18254878Y9489643D01*
X18250763Y9493707D01*
X18245886Y9496806D01*
X18240400Y9498685D01*
X18234101Y9499396D01*
X17296790Y9499396D01*
X17290491Y9498685D01*
X17285055Y9496806D01*
X17280128Y9493707D01*
X17276064Y9489643D01*
X17272965Y9484715D01*
X17271034Y9479280D01*
X17270323Y9472930D01*
X17270323Y9259773D01*
X17271034Y9253474D01*
X17272965Y9247987D01*
X17276064Y9243110D01*
X17280128Y9238996D01*
X17285055Y9235948D01*
X17290491Y9234017D01*
G37*
G36*
X14290090Y5121351D02*
G01*
X14335048Y5121351D01*
X14335048Y5166309D01*
X14326565Y5161940D01*
X14315897Y5154371D01*
X14306346Y5145430D01*
X14298066Y5135270D01*
X14291259Y5124094D01*
G37*
G36*
X13820851Y5121351D02*
G01*
X13865809Y5121351D01*
X13864640Y5124094D01*
X13857833Y5135270D01*
X13849553Y5145430D01*
X13840002Y5154371D01*
X13829334Y5161940D01*
X13820851Y5166309D01*
G37*
G36*
X14417751Y5121351D02*
G01*
X14462709Y5121351D01*
X14461540Y5124094D01*
X14454733Y5135270D01*
X14446453Y5145430D01*
X14436902Y5154371D01*
X14426234Y5161940D01*
X14417751Y5166309D01*
G37*
G36*
X12793878Y9207906D02*
G01*
X13522401Y9207906D01*
X13528700Y9208617D01*
X13534186Y9210548D01*
X13539063Y9213596D01*
X13543178Y9217710D01*
X13546226Y9222587D01*
X13548156Y9228074D01*
X13548868Y9234373D01*
X13548868Y9447530D01*
X13548156Y9453880D01*
X13546226Y9459315D01*
X13543178Y9464243D01*
X13539063Y9468307D01*
X13534186Y9471406D01*
X13528700Y9473285D01*
X13522401Y9473996D01*
X12793878Y9473996D01*
X12787528Y9473285D01*
X12782092Y9471406D01*
X12777165Y9468307D01*
X12773101Y9464243D01*
X12770002Y9459315D01*
X12768072Y9453880D01*
X12767360Y9447530D01*
X12767360Y9234373D01*
X12768072Y9228074D01*
X12770002Y9222587D01*
X12773101Y9217710D01*
X12777165Y9213596D01*
X12782092Y9210548D01*
X12787528Y9208617D01*
G37*
G36*
X14157858Y9194038D02*
G01*
X15211501Y9194038D01*
X15217800Y9194749D01*
X15223286Y9196679D01*
X15228163Y9199778D01*
X15232278Y9203842D01*
X15235326Y9208770D01*
X15237256Y9214205D01*
X15237968Y9220555D01*
X15237968Y9498330D01*
X15237256Y9504680D01*
X15235326Y9510115D01*
X15232278Y9515043D01*
X15228163Y9519107D01*
X15223286Y9522206D01*
X15217800Y9524085D01*
X15211501Y9524796D01*
X14157858Y9524796D01*
X14151508Y9524085D01*
X14146072Y9522206D01*
X14141145Y9519107D01*
X14137081Y9515043D01*
X14133982Y9510115D01*
X14132051Y9504680D01*
X14131340Y9498330D01*
X14131340Y9220555D01*
X14132051Y9214205D01*
X14133982Y9208770D01*
X14137081Y9203842D01*
X14141145Y9199778D01*
X14146072Y9196679D01*
X14151508Y9194749D01*
G37*
G36*
X16463772Y8972550D02*
G01*
X16511524Y8972550D01*
X16511524Y9019743D01*
X16503904Y9015933D01*
X16492677Y9008211D01*
X16482568Y8999067D01*
X16473779Y8988653D01*
X16466413Y8977172D01*
X16465194Y8974531D01*
G37*
G36*
X14952472Y8972550D02*
G01*
X15000224Y8972550D01*
X15000224Y9019743D01*
X14992604Y9015933D01*
X14981377Y9008211D01*
X14971268Y8999067D01*
X14962479Y8988653D01*
X14955113Y8977172D01*
X14953894Y8974531D01*
G37*
G36*
X17987772Y8972550D02*
G01*
X18035524Y8972550D01*
X18035524Y9019743D01*
X18027904Y9015933D01*
X18016677Y9008211D01*
X18006568Y8999067D01*
X17997779Y8988653D01*
X17990413Y8977172D01*
X17989194Y8974531D01*
G37*
G36*
X13415772Y8972550D02*
G01*
X13463524Y8972550D01*
X13463524Y9019743D01*
X13455904Y9015933D01*
X13444677Y9008211D01*
X13434568Y8999067D01*
X13425779Y8988653D01*
X13418413Y8977172D01*
X13417194Y8974531D01*
G37*
G36*
X18124424Y8972550D02*
G01*
X18171617Y8972550D01*
X18169483Y8977172D01*
X18162117Y8988653D01*
X18153329Y8999067D01*
X18143220Y9008211D01*
X18131993Y9015933D01*
X18124424Y9019743D01*
G37*
G36*
X16600424Y8972550D02*
G01*
X16647617Y8972550D01*
X16645483Y8977172D01*
X16638117Y8988653D01*
X16629329Y8999067D01*
X16619219Y9008211D01*
X16607993Y9015933D01*
X16600424Y9019743D01*
G37*
G36*
X11033861Y5194706D02*
G01*
X12379401Y5194706D01*
X12385700Y5195417D01*
X12391186Y5197348D01*
X12396063Y5200396D01*
X12400178Y5204510D01*
X12403226Y5209387D01*
X12405156Y5214874D01*
X12405868Y5221173D01*
X12405868Y5434330D01*
X12405156Y5440680D01*
X12403226Y5446115D01*
X12400178Y5451043D01*
X12396063Y5455107D01*
X12391186Y5458206D01*
X12385700Y5460085D01*
X12379401Y5460796D01*
X11033861Y5460796D01*
X11027562Y5460085D01*
X11022076Y5458206D01*
X11017199Y5455107D01*
X11013084Y5451043D01*
X11010036Y5446115D01*
X11008106Y5440680D01*
X11007394Y5434330D01*
X11007394Y5221173D01*
X11008106Y5214874D01*
X11010036Y5209387D01*
X11013084Y5204510D01*
X11017199Y5200396D01*
X11022076Y5197348D01*
X11027562Y5195417D01*
G37*
G36*
X14530578Y5640679D02*
G01*
X14679422Y5640679D01*
X14685772Y5641390D01*
X14691207Y5643321D01*
X14696135Y5646420D01*
X14700199Y5650484D01*
X14703298Y5655411D01*
X14705177Y5660847D01*
X14705888Y5667146D01*
X14705888Y5966053D01*
X14705177Y5972352D01*
X14703298Y5977788D01*
X14700199Y5982716D01*
X14696135Y5986780D01*
X14691207Y5989878D01*
X14685772Y5991809D01*
X14679422Y5992520D01*
X14530578Y5992520D01*
X14524228Y5991809D01*
X14518792Y5989878D01*
X14513864Y5986780D01*
X14509800Y5982716D01*
X14506701Y5977788D01*
X14504822Y5972352D01*
X14504111Y5966053D01*
X14504111Y5667146D01*
X14504822Y5660847D01*
X14506701Y5655411D01*
X14509800Y5650484D01*
X14513864Y5646420D01*
X14518792Y5643321D01*
X14524228Y5641390D01*
G37*
G36*
X16054578Y5640679D02*
G01*
X16203422Y5640679D01*
X16209772Y5641390D01*
X16215207Y5643321D01*
X16220135Y5646420D01*
X16224199Y5650484D01*
X16227298Y5655411D01*
X16229177Y5660847D01*
X16229888Y5667146D01*
X16229888Y5966053D01*
X16229177Y5972352D01*
X16227298Y5977788D01*
X16224199Y5982716D01*
X16220135Y5986780D01*
X16215207Y5989878D01*
X16209772Y5991809D01*
X16203422Y5992520D01*
X16054578Y5992520D01*
X16048228Y5991809D01*
X16042792Y5989878D01*
X16037864Y5986780D01*
X16033800Y5982716D01*
X16030701Y5977788D01*
X16028822Y5972352D01*
X16028111Y5966053D01*
X16028111Y5667146D01*
X16028822Y5660847D01*
X16030701Y5655411D01*
X16033800Y5650484D01*
X16037864Y5646420D01*
X16042792Y5643321D01*
X16048228Y5641390D01*
G37*
G36*
X15292578Y5640679D02*
G01*
X15441422Y5640679D01*
X15447772Y5641390D01*
X15453207Y5643321D01*
X15458135Y5646420D01*
X15462199Y5650484D01*
X15465298Y5655411D01*
X15467177Y5660847D01*
X15467888Y5667146D01*
X15467888Y5966053D01*
X15467177Y5972352D01*
X15465298Y5977788D01*
X15462199Y5982716D01*
X15458135Y5986780D01*
X15453207Y5989878D01*
X15447772Y5991809D01*
X15441422Y5992520D01*
X15292578Y5992520D01*
X15286228Y5991809D01*
X15280792Y5989878D01*
X15275864Y5986780D01*
X15271800Y5982716D01*
X15268701Y5977788D01*
X15266822Y5972352D01*
X15266111Y5966053D01*
X15266111Y5667146D01*
X15266822Y5660847D01*
X15268701Y5655411D01*
X15271800Y5650484D01*
X15275864Y5646420D01*
X15280792Y5643321D01*
X15286228Y5641390D01*
G37*
G36*
X15038578Y5640679D02*
G01*
X15187422Y5640679D01*
X15193772Y5641390D01*
X15199207Y5643321D01*
X15204135Y5646420D01*
X15208199Y5650484D01*
X15211298Y5655411D01*
X15213177Y5660847D01*
X15213888Y5667146D01*
X15213888Y5966053D01*
X15213177Y5972352D01*
X15211298Y5977788D01*
X15208199Y5982716D01*
X15204135Y5986780D01*
X15199207Y5989878D01*
X15193772Y5991809D01*
X15187422Y5992520D01*
X15038578Y5992520D01*
X15032228Y5991809D01*
X15026792Y5989878D01*
X15021864Y5986780D01*
X15017800Y5982716D01*
X15014701Y5977788D01*
X15012822Y5972352D01*
X15012111Y5966053D01*
X15012111Y5667146D01*
X15012822Y5660847D01*
X15014701Y5655411D01*
X15017800Y5650484D01*
X15021864Y5646420D01*
X15026792Y5643321D01*
X15032228Y5641390D01*
G37*
G36*
X15800578Y5640679D02*
G01*
X15949422Y5640679D01*
X15955772Y5641390D01*
X15961207Y5643321D01*
X15966135Y5646420D01*
X15970199Y5650484D01*
X15973298Y5655411D01*
X15975177Y5660847D01*
X15975888Y5667146D01*
X15975888Y5966053D01*
X15975177Y5972352D01*
X15973298Y5977788D01*
X15970199Y5982716D01*
X15966135Y5986780D01*
X15961207Y5989878D01*
X15955772Y5991809D01*
X15949422Y5992520D01*
X15800578Y5992520D01*
X15794228Y5991809D01*
X15788792Y5989878D01*
X15783864Y5986780D01*
X15779800Y5982716D01*
X15776701Y5977788D01*
X15774822Y5972352D01*
X15774111Y5966053D01*
X15774111Y5667146D01*
X15774822Y5660847D01*
X15776701Y5655411D01*
X15779800Y5650484D01*
X15783864Y5646420D01*
X15788792Y5643321D01*
X15794228Y5641390D01*
G37*
G36*
X13768578Y5640679D02*
G01*
X13917422Y5640679D01*
X13923772Y5641390D01*
X13929207Y5643321D01*
X13934135Y5646420D01*
X13938199Y5650484D01*
X13941298Y5655411D01*
X13943177Y5660847D01*
X13943888Y5667146D01*
X13943888Y5966053D01*
X13943177Y5972352D01*
X13941298Y5977788D01*
X13938199Y5982716D01*
X13934135Y5986780D01*
X13929207Y5989878D01*
X13923772Y5991809D01*
X13917422Y5992520D01*
X13768578Y5992520D01*
X13762228Y5991809D01*
X13756792Y5989878D01*
X13751864Y5986780D01*
X13747800Y5982716D01*
X13744701Y5977788D01*
X13742822Y5972352D01*
X13742111Y5966053D01*
X13742111Y5667146D01*
X13742822Y5660847D01*
X13744701Y5655411D01*
X13747800Y5650484D01*
X13751864Y5646420D01*
X13756792Y5643321D01*
X13762228Y5641390D01*
G37*
G36*
X13514578Y5640679D02*
G01*
X13663422Y5640679D01*
X13669772Y5641390D01*
X13675207Y5643321D01*
X13680135Y5646420D01*
X13684199Y5650484D01*
X13687298Y5655411D01*
X13689177Y5660847D01*
X13689888Y5667146D01*
X13689888Y5966053D01*
X13689177Y5972352D01*
X13687298Y5977788D01*
X13684199Y5982716D01*
X13680135Y5986780D01*
X13675207Y5989878D01*
X13669772Y5991809D01*
X13663422Y5992520D01*
X13514578Y5992520D01*
X13508228Y5991809D01*
X13502792Y5989878D01*
X13497864Y5986780D01*
X13493800Y5982716D01*
X13490701Y5977788D01*
X13488822Y5972352D01*
X13488111Y5966053D01*
X13488111Y5667146D01*
X13488822Y5660847D01*
X13490701Y5655411D01*
X13493800Y5650484D01*
X13497864Y5646420D01*
X13502792Y5643321D01*
X13508228Y5641390D01*
G37*
G36*
X14276578Y5640679D02*
G01*
X14425422Y5640679D01*
X14431772Y5641390D01*
X14437207Y5643321D01*
X14442135Y5646420D01*
X14446199Y5650484D01*
X14449298Y5655411D01*
X14451177Y5660847D01*
X14451888Y5667146D01*
X14451888Y5966053D01*
X14451177Y5972352D01*
X14449298Y5977788D01*
X14446199Y5982716D01*
X14442135Y5986780D01*
X14437207Y5989878D01*
X14431772Y5991809D01*
X14425422Y5992520D01*
X14276578Y5992520D01*
X14270228Y5991809D01*
X14264792Y5989878D01*
X14259864Y5986780D01*
X14255800Y5982716D01*
X14252701Y5977788D01*
X14250822Y5972352D01*
X14250111Y5966053D01*
X14250111Y5667146D01*
X14250822Y5660847D01*
X14252701Y5655411D01*
X14255800Y5650484D01*
X14259864Y5646420D01*
X14264792Y5643321D01*
X14270228Y5641390D01*
G37*
G36*
X14022578Y5640679D02*
G01*
X14171422Y5640679D01*
X14177772Y5641390D01*
X14183207Y5643321D01*
X14188135Y5646420D01*
X14192199Y5650484D01*
X14195298Y5655411D01*
X14197177Y5660847D01*
X14197888Y5667146D01*
X14197888Y5966053D01*
X14197177Y5972352D01*
X14195298Y5977788D01*
X14192199Y5982716D01*
X14188135Y5986780D01*
X14183207Y5989878D01*
X14177772Y5991809D01*
X14171422Y5992520D01*
X14022578Y5992520D01*
X14016228Y5991809D01*
X14010792Y5989878D01*
X14005864Y5986780D01*
X14001800Y5982716D01*
X13998701Y5977788D01*
X13996822Y5972352D01*
X13996111Y5966053D01*
X13996111Y5667146D01*
X13996822Y5660847D01*
X13998701Y5655411D01*
X14001800Y5650484D01*
X14005864Y5646420D01*
X14010792Y5643321D01*
X14016228Y5641390D01*
G37*
G36*
X15546578Y5640679D02*
G01*
X15695422Y5640679D01*
X15701772Y5641390D01*
X15707207Y5643321D01*
X15712135Y5646420D01*
X15716199Y5650484D01*
X15719298Y5655411D01*
X15721177Y5660847D01*
X15721888Y5667146D01*
X15721888Y5966053D01*
X15721177Y5972352D01*
X15719298Y5977788D01*
X15716199Y5982716D01*
X15712135Y5986780D01*
X15707207Y5989878D01*
X15701772Y5991809D01*
X15695422Y5992520D01*
X15546578Y5992520D01*
X15540228Y5991809D01*
X15534792Y5989878D01*
X15529864Y5986780D01*
X15525800Y5982716D01*
X15522701Y5977788D01*
X15520822Y5972352D01*
X15520111Y5966053D01*
X15520111Y5667146D01*
X15520822Y5660847D01*
X15522701Y5655411D01*
X15525800Y5650484D01*
X15529864Y5646420D01*
X15534792Y5643321D01*
X15540228Y5641390D01*
G37*
G36*
X13006578Y5640679D02*
G01*
X13155422Y5640679D01*
X13161772Y5641390D01*
X13167207Y5643321D01*
X13172135Y5646420D01*
X13176199Y5650484D01*
X13179298Y5655411D01*
X13181177Y5660847D01*
X13181888Y5667146D01*
X13181888Y5966053D01*
X13181177Y5972352D01*
X13179298Y5977788D01*
X13176199Y5982716D01*
X13172135Y5986780D01*
X13167207Y5989878D01*
X13161772Y5991809D01*
X13155422Y5992520D01*
X13006578Y5992520D01*
X13000228Y5991809D01*
X12994792Y5989878D01*
X12989864Y5986780D01*
X12985800Y5982716D01*
X12982702Y5977788D01*
X12980822Y5972352D01*
X12980111Y5966053D01*
X12980111Y5667146D01*
X12980822Y5660847D01*
X12982702Y5655411D01*
X12985800Y5650484D01*
X12989864Y5646420D01*
X12994792Y5643321D01*
X13000228Y5641390D01*
G37*
G36*
X12471704Y7038390D02*
G01*
X13461695Y7038390D01*
X13469721Y7038898D01*
X13471804Y7039203D01*
X13479576Y7040981D01*
X13488924Y7044690D01*
X13490803Y7045655D01*
X13499236Y7051090D01*
X13505281Y7056475D01*
X13631824Y7183018D01*
X13637209Y7189063D01*
X13642644Y7197496D01*
X13643610Y7199375D01*
X13647318Y7208723D01*
X13649096Y7216495D01*
X13649401Y7218578D01*
X13649909Y7226604D01*
X13649909Y7662519D01*
X13650671Y7666431D01*
X13652906Y7669733D01*
X13656157Y7671917D01*
X13660069Y7672679D01*
X13663422Y7672679D01*
X13669772Y7673390D01*
X13675207Y7675321D01*
X13680135Y7678420D01*
X13684199Y7682484D01*
X13687298Y7687411D01*
X13689177Y7692847D01*
X13689888Y7699146D01*
X13689888Y7998053D01*
X13689177Y8004352D01*
X13687298Y8009788D01*
X13684199Y8014716D01*
X13680135Y8018780D01*
X13675207Y8021878D01*
X13669772Y8023809D01*
X13663422Y8024520D01*
X13514578Y8024520D01*
X13508228Y8023809D01*
X13502792Y8021878D01*
X13497864Y8018780D01*
X13493800Y8014716D01*
X13490701Y8009788D01*
X13488822Y8004352D01*
X13488111Y7998053D01*
X13488111Y7699146D01*
X13488822Y7692847D01*
X13490701Y7687411D01*
X13493800Y7682484D01*
X13497864Y7678420D01*
X13502792Y7675321D01*
X13508228Y7673390D01*
X13514578Y7672679D01*
X13517930Y7672679D01*
X13521842Y7671917D01*
X13525093Y7669733D01*
X13527328Y7666431D01*
X13528090Y7662519D01*
X13528090Y7255713D01*
X13527328Y7251852D01*
X13525093Y7248550D01*
X13439749Y7163206D01*
X13436447Y7160971D01*
X13432586Y7160209D01*
X12500813Y7160209D01*
X12496952Y7160971D01*
X12493650Y7163206D01*
X12268606Y7388250D01*
X12266371Y7391552D01*
X12265609Y7395413D01*
X12265609Y9381286D01*
X12266371Y9385147D01*
X12268606Y9388449D01*
X12468250Y9588093D01*
X12471552Y9590328D01*
X12475413Y9591090D01*
X13686586Y9591090D01*
X13690447Y9590328D01*
X13693749Y9588093D01*
X13906093Y9375749D01*
X13908328Y9372447D01*
X13909090Y9368586D01*
X13909090Y8716213D01*
X13908328Y8712352D01*
X13906093Y8709050D01*
X13782649Y8585606D01*
X13779347Y8583371D01*
X13775486Y8582609D01*
X13478713Y8582609D01*
X13474852Y8583371D01*
X13471550Y8585606D01*
X13371982Y8685174D01*
X13369747Y8688476D01*
X13368985Y8692337D01*
X13368985Y8841486D01*
X13369442Y8844534D01*
X13370763Y8847277D01*
X13372846Y8849461D01*
X13376503Y8852408D01*
X13386003Y8862212D01*
X13394080Y8873185D01*
X13399109Y8882278D01*
X13401903Y8885529D01*
X13405866Y8887307D01*
X13407237Y8887307D01*
X13405561Y8889796D01*
X13404748Y8893606D01*
X13405561Y8897874D01*
X13408710Y8911132D01*
X13410082Y8924696D01*
X13409625Y8938310D01*
X13407339Y8951772D01*
X13405002Y8959392D01*
X13404545Y8963152D01*
X13405561Y8966809D01*
X13407034Y8968841D01*
X13404240Y8969400D01*
X13401040Y8971432D01*
X13398804Y8974531D01*
X13397585Y8977172D01*
X13390219Y8988653D01*
X13381431Y8999067D01*
X13371322Y9008211D01*
X13360095Y9015933D01*
X13347903Y9022080D01*
X13335000Y9026550D01*
X13321639Y9029293D01*
X13308076Y9030208D01*
X13294461Y9029293D01*
X13281101Y9026550D01*
X13268198Y9022080D01*
X13256006Y9015933D01*
X13244779Y9008211D01*
X13234669Y8999067D01*
X13225881Y8988653D01*
X13218515Y8977172D01*
X13217194Y8974277D01*
X13214959Y8971178D01*
X13211708Y8969095D01*
X13208000Y8968384D01*
X13204240Y8969095D01*
X13200989Y8971178D01*
X13198754Y8974277D01*
X13197433Y8977172D01*
X13190067Y8988653D01*
X13181279Y8999067D01*
X13171169Y9008211D01*
X13159943Y9015933D01*
X13147751Y9022080D01*
X13134848Y9026550D01*
X13121487Y9029293D01*
X13107924Y9030208D01*
X13094309Y9029293D01*
X13080949Y9026550D01*
X13068046Y9022080D01*
X13055854Y9015933D01*
X13044627Y9008211D01*
X13034518Y8999067D01*
X13025729Y8988653D01*
X13018363Y8977172D01*
X13017144Y8974531D01*
X13014909Y8971432D01*
X13011708Y8969400D01*
X13007949Y8968689D01*
X13004190Y8969400D01*
X13000990Y8971432D01*
X12998754Y8974531D01*
X12997535Y8977172D01*
X12990169Y8988653D01*
X12981381Y8999067D01*
X12971272Y9008211D01*
X12960045Y9015933D01*
X12947853Y9022080D01*
X12934950Y9026550D01*
X12921589Y9029293D01*
X12908026Y9030208D01*
X12894411Y9029293D01*
X12881051Y9026550D01*
X12868148Y9022080D01*
X12855956Y9015933D01*
X12844729Y9008211D01*
X12834620Y8999067D01*
X12825831Y8988653D01*
X12818465Y8977172D01*
X12812725Y8964777D01*
X12808712Y8951772D01*
X12806426Y8938310D01*
X12805968Y8924696D01*
X12807340Y8911132D01*
X12810490Y8897874D01*
X12815417Y8885123D01*
X12821970Y8873185D01*
X12830048Y8862212D01*
X12839547Y8852408D01*
X12843256Y8849461D01*
X12845338Y8847226D01*
X12846659Y8844483D01*
X12847116Y8841486D01*
X12847116Y8517178D01*
X12847624Y8509152D01*
X12847929Y8507069D01*
X12849707Y8499297D01*
X12853416Y8489950D01*
X12854381Y8488070D01*
X12859816Y8479637D01*
X12865201Y8473592D01*
X13050418Y8288375D01*
X13056463Y8282990D01*
X13064896Y8277555D01*
X13066776Y8276590D01*
X13076123Y8272881D01*
X13083895Y8271103D01*
X13085978Y8270798D01*
X13094004Y8270290D01*
X14131086Y8270290D01*
X14134947Y8269528D01*
X14138249Y8267293D01*
X14287093Y8118449D01*
X14289328Y8115147D01*
X14290090Y8111286D01*
X14290090Y8034680D01*
X14289328Y8030768D01*
X14287093Y8027466D01*
X14283842Y8025282D01*
X14279930Y8024520D01*
X14276578Y8024520D01*
X14270228Y8023809D01*
X14264792Y8021878D01*
X14259864Y8018780D01*
X14255800Y8014716D01*
X14252701Y8009788D01*
X14250822Y8004352D01*
X14250111Y7998053D01*
X14250111Y7699146D01*
X14250822Y7692847D01*
X14252701Y7687411D01*
X14255800Y7682484D01*
X14259864Y7678420D01*
X14264792Y7675321D01*
X14270228Y7673390D01*
X14276578Y7672679D01*
X14425422Y7672679D01*
X14431772Y7673390D01*
X14437207Y7675321D01*
X14442135Y7678420D01*
X14446199Y7682484D01*
X14449298Y7687411D01*
X14451177Y7692847D01*
X14451888Y7699146D01*
X14451888Y7998053D01*
X14451177Y8004352D01*
X14449298Y8009788D01*
X14446199Y8014716D01*
X14442135Y8018780D01*
X14437207Y8021878D01*
X14431772Y8023809D01*
X14425422Y8024520D01*
X14422069Y8024520D01*
X14418157Y8025282D01*
X14414906Y8027466D01*
X14412671Y8030768D01*
X14411909Y8034680D01*
X14411909Y8140395D01*
X14411401Y8148421D01*
X14411096Y8150504D01*
X14409318Y8158276D01*
X14405610Y8167624D01*
X14404644Y8169503D01*
X14399209Y8177936D01*
X14393824Y8183981D01*
X14203781Y8374024D01*
X14197736Y8379409D01*
X14189303Y8384844D01*
X14187424Y8385809D01*
X14178076Y8389518D01*
X14170304Y8391296D01*
X14168221Y8391601D01*
X14160195Y8392109D01*
X13123113Y8392109D01*
X13119252Y8392871D01*
X13115950Y8395106D01*
X12971932Y8539124D01*
X12969697Y8542426D01*
X12968935Y8546287D01*
X12968935Y8841486D01*
X12969392Y8844534D01*
X12970713Y8847277D01*
X12972796Y8849461D01*
X12976453Y8852408D01*
X12985953Y8862212D01*
X12994030Y8873185D01*
X12999059Y8882278D01*
X13001853Y8885529D01*
X13005815Y8887307D01*
X13010083Y8887307D01*
X13014045Y8885529D01*
X13016839Y8882278D01*
X13021868Y8873185D01*
X13029946Y8862212D01*
X13039445Y8852408D01*
X13050113Y8843924D01*
X13061848Y8836964D01*
X13074396Y8831681D01*
X13087553Y8828074D01*
X13101065Y8826246D01*
X13114731Y8826246D01*
X13128244Y8828074D01*
X13141401Y8831681D01*
X13153948Y8836964D01*
X13165683Y8843924D01*
X13176351Y8852408D01*
X13185851Y8862212D01*
X13193928Y8873185D01*
X13199059Y8882532D01*
X13201904Y8885783D01*
X13205815Y8887561D01*
X13210133Y8887561D01*
X13214045Y8885783D01*
X13216890Y8882532D01*
X13222020Y8873185D01*
X13230098Y8862212D01*
X13239597Y8852408D01*
X13243306Y8849461D01*
X13245388Y8847226D01*
X13246709Y8844483D01*
X13247166Y8841486D01*
X13247166Y8663228D01*
X13247674Y8655202D01*
X13247979Y8653119D01*
X13249757Y8645347D01*
X13253466Y8636000D01*
X13254431Y8634120D01*
X13259866Y8625687D01*
X13265251Y8619642D01*
X13406018Y8478875D01*
X13412063Y8473490D01*
X13420496Y8468055D01*
X13422376Y8467090D01*
X13431723Y8463381D01*
X13439495Y8461603D01*
X13441578Y8461298D01*
X13449604Y8460790D01*
X13804595Y8460790D01*
X13812621Y8461298D01*
X13814704Y8461603D01*
X13822476Y8463381D01*
X13831824Y8467090D01*
X13833703Y8468055D01*
X13842136Y8473490D01*
X13848181Y8478875D01*
X14012824Y8643518D01*
X14018209Y8649563D01*
X14023644Y8657996D01*
X14024610Y8659876D01*
X14028318Y8669223D01*
X14030096Y8676995D01*
X14030401Y8679078D01*
X14030909Y8687104D01*
X14030909Y9397695D01*
X14030401Y9405721D01*
X14030096Y9407804D01*
X14028318Y9415576D01*
X14024610Y9424924D01*
X14023644Y9426803D01*
X14018209Y9435236D01*
X14012824Y9441281D01*
X13880388Y9573768D01*
X13878204Y9577019D01*
X13877391Y9580930D01*
X13878204Y9584842D01*
X13880388Y9588093D01*
X13883690Y9590328D01*
X13887551Y9591090D01*
X15235986Y9591090D01*
X15239847Y9590328D01*
X15243149Y9588093D01*
X15430093Y9401149D01*
X15432328Y9397847D01*
X15433090Y9393986D01*
X15433090Y8703513D01*
X15432328Y8699652D01*
X15430093Y8696350D01*
X15293949Y8560206D01*
X15290647Y8557971D01*
X15286786Y8557209D01*
X15040813Y8557209D01*
X15036952Y8557971D01*
X15033650Y8560206D01*
X14908682Y8685174D01*
X14906447Y8688476D01*
X14905685Y8692337D01*
X14905685Y8841486D01*
X14906142Y8844534D01*
X14907463Y8847277D01*
X14909546Y8849461D01*
X14913203Y8852408D01*
X14922703Y8862212D01*
X14930780Y8873185D01*
X14935809Y8882278D01*
X14938603Y8885529D01*
X14942566Y8887307D01*
X14943937Y8887307D01*
X14942261Y8889796D01*
X14941448Y8893606D01*
X14942261Y8897874D01*
X14945410Y8911132D01*
X14946782Y8924696D01*
X14946325Y8938310D01*
X14944039Y8951772D01*
X14941702Y8959392D01*
X14941245Y8963152D01*
X14942261Y8966809D01*
X14943734Y8968841D01*
X14940940Y8969400D01*
X14937740Y8971432D01*
X14935504Y8974531D01*
X14934285Y8977172D01*
X14926919Y8988653D01*
X14918131Y8999067D01*
X14908022Y9008211D01*
X14896795Y9015933D01*
X14884603Y9022080D01*
X14871700Y9026550D01*
X14858339Y9029293D01*
X14844776Y9030208D01*
X14831161Y9029293D01*
X14817801Y9026550D01*
X14804898Y9022080D01*
X14792706Y9015933D01*
X14781479Y9008211D01*
X14771369Y8999067D01*
X14762581Y8988653D01*
X14755215Y8977172D01*
X14753894Y8974277D01*
X14751659Y8971178D01*
X14748408Y8969095D01*
X14744700Y8968384D01*
X14740940Y8969095D01*
X14737689Y8971178D01*
X14735454Y8974277D01*
X14734133Y8977172D01*
X14726767Y8988653D01*
X14717979Y8999067D01*
X14707869Y9008211D01*
X14696643Y9015933D01*
X14684451Y9022080D01*
X14671548Y9026550D01*
X14658187Y9029293D01*
X14644624Y9030208D01*
X14631009Y9029293D01*
X14617649Y9026550D01*
X14604746Y9022080D01*
X14592554Y9015933D01*
X14581327Y9008211D01*
X14571218Y8999067D01*
X14562429Y8988653D01*
X14555063Y8977172D01*
X14553844Y8974531D01*
X14551609Y8971432D01*
X14548408Y8969400D01*
X14544649Y8968689D01*
X14540890Y8969400D01*
X14537690Y8971432D01*
X14535454Y8974531D01*
X14534235Y8977172D01*
X14526869Y8988653D01*
X14518081Y8999067D01*
X14507972Y9008211D01*
X14496745Y9015933D01*
X14484553Y9022080D01*
X14471650Y9026550D01*
X14458289Y9029293D01*
X14444726Y9030208D01*
X14431111Y9029293D01*
X14417751Y9026550D01*
X14404848Y9022080D01*
X14392656Y9015933D01*
X14381429Y9008211D01*
X14371319Y8999067D01*
X14362531Y8988653D01*
X14355165Y8977172D01*
X14349425Y8964777D01*
X14345412Y8951772D01*
X14343126Y8938310D01*
X14342668Y8924696D01*
X14344040Y8911132D01*
X14347190Y8897874D01*
X14352117Y8885123D01*
X14358670Y8873185D01*
X14366748Y8862212D01*
X14376247Y8852408D01*
X14379956Y8849461D01*
X14382038Y8847226D01*
X14383359Y8844483D01*
X14383816Y8841486D01*
X14383816Y8644178D01*
X14384324Y8636152D01*
X14384629Y8634069D01*
X14386407Y8626297D01*
X14390116Y8616950D01*
X14391081Y8615070D01*
X14396516Y8606637D01*
X14401901Y8600592D01*
X14795093Y8207349D01*
X14797328Y8204047D01*
X14798090Y8200186D01*
X14798090Y8034680D01*
X14797328Y8030768D01*
X14795093Y8027466D01*
X14791842Y8025282D01*
X14787930Y8024520D01*
X14784578Y8024520D01*
X14778228Y8023809D01*
X14772792Y8021878D01*
X14767864Y8018780D01*
X14763800Y8014716D01*
X14760701Y8009788D01*
X14758822Y8004352D01*
X14758111Y7998053D01*
X14758111Y7699146D01*
X14758822Y7692847D01*
X14760701Y7687411D01*
X14763800Y7682484D01*
X14767864Y7678420D01*
X14772792Y7675321D01*
X14778228Y7673390D01*
X14784578Y7672679D01*
X14933422Y7672679D01*
X14939772Y7673390D01*
X14945207Y7675321D01*
X14950135Y7678420D01*
X14954199Y7682484D01*
X14957298Y7687411D01*
X14959177Y7692847D01*
X14959888Y7699146D01*
X14959888Y7998053D01*
X14959177Y8004352D01*
X14957298Y8009788D01*
X14954199Y8014716D01*
X14950135Y8018780D01*
X14945207Y8021878D01*
X14939772Y8023809D01*
X14933422Y8024520D01*
X14930069Y8024520D01*
X14926157Y8025282D01*
X14922906Y8027466D01*
X14920671Y8030768D01*
X14919909Y8034680D01*
X14919909Y8229295D01*
X14919401Y8237321D01*
X14919096Y8239404D01*
X14917318Y8247176D01*
X14913610Y8256524D01*
X14912644Y8258403D01*
X14907209Y8266836D01*
X14901824Y8272881D01*
X14508632Y8666124D01*
X14506397Y8669426D01*
X14505635Y8673287D01*
X14505635Y8841486D01*
X14506092Y8844534D01*
X14507413Y8847277D01*
X14509496Y8849461D01*
X14513153Y8852408D01*
X14522653Y8862212D01*
X14530730Y8873185D01*
X14535759Y8882278D01*
X14538553Y8885529D01*
X14542516Y8887307D01*
X14546783Y8887307D01*
X14550745Y8885529D01*
X14553539Y8882278D01*
X14558568Y8873185D01*
X14566646Y8862212D01*
X14576145Y8852408D01*
X14586813Y8843924D01*
X14598548Y8836964D01*
X14611096Y8831681D01*
X14624253Y8828074D01*
X14637766Y8826246D01*
X14651431Y8826246D01*
X14664944Y8828074D01*
X14678101Y8831681D01*
X14690648Y8836964D01*
X14702383Y8843924D01*
X14713051Y8852408D01*
X14722551Y8862212D01*
X14730628Y8873185D01*
X14735759Y8882532D01*
X14738604Y8885783D01*
X14742515Y8887561D01*
X14746833Y8887561D01*
X14750745Y8885783D01*
X14753590Y8882532D01*
X14758720Y8873185D01*
X14766798Y8862212D01*
X14776297Y8852408D01*
X14780006Y8849461D01*
X14782088Y8847226D01*
X14783409Y8844483D01*
X14783866Y8841486D01*
X14783866Y8663228D01*
X14784374Y8655202D01*
X14784679Y8653119D01*
X14786457Y8645347D01*
X14790166Y8636000D01*
X14791131Y8634120D01*
X14796566Y8625687D01*
X14801951Y8619642D01*
X14968118Y8453475D01*
X14974163Y8448090D01*
X14982596Y8442655D01*
X14984476Y8441690D01*
X14993823Y8437981D01*
X15001595Y8436203D01*
X15003678Y8435898D01*
X15011704Y8435390D01*
X15315895Y8435390D01*
X15323921Y8435898D01*
X15326004Y8436203D01*
X15333776Y8437981D01*
X15343124Y8441690D01*
X15345003Y8442655D01*
X15353436Y8448090D01*
X15359481Y8453475D01*
X15536824Y8630818D01*
X15542209Y8636863D01*
X15547644Y8645296D01*
X15548610Y8647176D01*
X15552318Y8656523D01*
X15554096Y8664295D01*
X15554401Y8666378D01*
X15554909Y8674404D01*
X15554909Y9423095D01*
X15554401Y9431121D01*
X15554096Y9433204D01*
X15552318Y9440976D01*
X15548610Y9450324D01*
X15547644Y9452203D01*
X15542209Y9460636D01*
X15536824Y9466681D01*
X15429788Y9573768D01*
X15427604Y9577019D01*
X15426791Y9580930D01*
X15427604Y9584842D01*
X15429788Y9588093D01*
X15433090Y9590328D01*
X15436951Y9591090D01*
X16747286Y9591090D01*
X16751147Y9590328D01*
X16754449Y9588093D01*
X16801236Y9541357D01*
X16803471Y9537903D01*
X16804182Y9533788D01*
X16803166Y9529775D01*
X16800677Y9526473D01*
X16797020Y9524441D01*
X16792905Y9524085D01*
X16786301Y9524796D01*
X15649498Y9524796D01*
X15643199Y9524085D01*
X15637713Y9522206D01*
X15632836Y9519107D01*
X15628721Y9515043D01*
X15625673Y9510115D01*
X15623743Y9504680D01*
X15623032Y9498330D01*
X15623032Y9220555D01*
X15623743Y9214205D01*
X15625673Y9208770D01*
X15628721Y9203842D01*
X15632836Y9199778D01*
X15637713Y9196679D01*
X15643199Y9194749D01*
X15649498Y9194038D01*
X16786301Y9194038D01*
X16792600Y9194749D01*
X16798086Y9196679D01*
X16802963Y9199778D01*
X16807078Y9203842D01*
X16810126Y9208770D01*
X16812056Y9214205D01*
X16812768Y9220555D01*
X16812768Y9498330D01*
X16812006Y9504934D01*
X16812412Y9509048D01*
X16814444Y9512706D01*
X16817695Y9515246D01*
X16821759Y9516211D01*
X16825823Y9515551D01*
X16829328Y9513265D01*
X16954093Y9388449D01*
X16956328Y9385147D01*
X16957090Y9381286D01*
X16957090Y8728913D01*
X16956328Y8725052D01*
X16954093Y8721750D01*
X16843349Y8611006D01*
X16840047Y8608771D01*
X16836186Y8608009D01*
X16539413Y8608009D01*
X16535552Y8608771D01*
X16532250Y8611006D01*
X16419982Y8723274D01*
X16417747Y8726576D01*
X16416985Y8730437D01*
X16416985Y8841486D01*
X16417442Y8844534D01*
X16418763Y8847277D01*
X16420846Y8849461D01*
X16424503Y8852408D01*
X16434003Y8862212D01*
X16442080Y8873185D01*
X16447109Y8882278D01*
X16449903Y8885529D01*
X16453866Y8887307D01*
X16455237Y8887307D01*
X16453561Y8889796D01*
X16452748Y8893606D01*
X16453561Y8897874D01*
X16456710Y8911132D01*
X16458082Y8924696D01*
X16457625Y8938310D01*
X16455339Y8951772D01*
X16453002Y8959392D01*
X16452545Y8963152D01*
X16453561Y8966809D01*
X16455034Y8968841D01*
X16452240Y8969400D01*
X16449040Y8971432D01*
X16446804Y8974531D01*
X16445585Y8977172D01*
X16438219Y8988653D01*
X16429431Y8999067D01*
X16419322Y9008211D01*
X16408095Y9015933D01*
X16395903Y9022080D01*
X16383000Y9026550D01*
X16369639Y9029293D01*
X16356076Y9030208D01*
X16342461Y9029293D01*
X16329101Y9026550D01*
X16316198Y9022080D01*
X16304006Y9015933D01*
X16292779Y9008211D01*
X16282669Y8999067D01*
X16273881Y8988653D01*
X16266515Y8977172D01*
X16265194Y8974277D01*
X16262959Y8971178D01*
X16259708Y8969095D01*
X16256000Y8968384D01*
X16252240Y8969095D01*
X16248989Y8971178D01*
X16246754Y8974277D01*
X16245433Y8977172D01*
X16238067Y8988653D01*
X16229279Y8999067D01*
X16219169Y9008211D01*
X16207943Y9015933D01*
X16195751Y9022080D01*
X16182848Y9026550D01*
X16169487Y9029293D01*
X16155924Y9030208D01*
X16142309Y9029293D01*
X16128949Y9026550D01*
X16116046Y9022080D01*
X16103854Y9015933D01*
X16092627Y9008211D01*
X16082518Y8999067D01*
X16073729Y8988653D01*
X16066363Y8977172D01*
X16065144Y8974531D01*
X16062909Y8971432D01*
X16059708Y8969400D01*
X16055949Y8968689D01*
X16052190Y8969400D01*
X16048990Y8971432D01*
X16046754Y8974531D01*
X16045535Y8977172D01*
X16038169Y8988653D01*
X16029381Y8999067D01*
X16019272Y9008211D01*
X16008045Y9015933D01*
X15995853Y9022080D01*
X15982950Y9026550D01*
X15969589Y9029293D01*
X15956026Y9030208D01*
X15942411Y9029293D01*
X15929051Y9026550D01*
X15916148Y9022080D01*
X15903956Y9015933D01*
X15892729Y9008211D01*
X15882619Y8999067D01*
X15873831Y8988653D01*
X15866465Y8977172D01*
X15860725Y8964777D01*
X15856712Y8951772D01*
X15854426Y8938310D01*
X15853968Y8924696D01*
X15855340Y8911132D01*
X15858490Y8897874D01*
X15863417Y8885123D01*
X15869970Y8873185D01*
X15878048Y8862212D01*
X15887547Y8852408D01*
X15891256Y8849461D01*
X15893338Y8847226D01*
X15894659Y8844483D01*
X15895116Y8841486D01*
X15895116Y8568639D01*
X15894354Y8564778D01*
X15892119Y8561476D01*
X15801949Y8471306D01*
X15798647Y8469071D01*
X15794786Y8468309D01*
X15557804Y8468309D01*
X15549778Y8467801D01*
X15547695Y8467496D01*
X15539923Y8465718D01*
X15530576Y8462010D01*
X15528696Y8461044D01*
X15520263Y8455609D01*
X15514218Y8450224D01*
X15324175Y8260181D01*
X15318790Y8254136D01*
X15313355Y8245703D01*
X15312390Y8243824D01*
X15308681Y8234476D01*
X15306903Y8226704D01*
X15306598Y8224621D01*
X15306090Y8216595D01*
X15306090Y8034680D01*
X15305328Y8030768D01*
X15303093Y8027466D01*
X15299842Y8025282D01*
X15295930Y8024520D01*
X15292578Y8024520D01*
X15286228Y8023809D01*
X15280792Y8021878D01*
X15275864Y8018780D01*
X15271800Y8014716D01*
X15268701Y8009788D01*
X15266822Y8004352D01*
X15266111Y7998053D01*
X15266111Y7699146D01*
X15266822Y7692847D01*
X15268701Y7687411D01*
X15271800Y7682484D01*
X15275864Y7678420D01*
X15280792Y7675321D01*
X15286228Y7673390D01*
X15292578Y7672679D01*
X15441422Y7672679D01*
X15447772Y7673390D01*
X15453207Y7675321D01*
X15458135Y7678420D01*
X15462199Y7682484D01*
X15465298Y7687411D01*
X15467177Y7692847D01*
X15467888Y7699146D01*
X15467888Y7998053D01*
X15467177Y8004352D01*
X15465298Y8009788D01*
X15462199Y8014716D01*
X15458135Y8018780D01*
X15453207Y8021878D01*
X15447772Y8023809D01*
X15441422Y8024520D01*
X15438069Y8024520D01*
X15434157Y8025282D01*
X15430906Y8027466D01*
X15428671Y8030768D01*
X15427909Y8034680D01*
X15427909Y8187486D01*
X15428671Y8191347D01*
X15430906Y8194649D01*
X15579750Y8343493D01*
X15583052Y8345728D01*
X15586913Y8346490D01*
X15823895Y8346490D01*
X15831921Y8346998D01*
X15834004Y8347303D01*
X15841776Y8349081D01*
X15851124Y8352790D01*
X15853003Y8353755D01*
X15861436Y8359190D01*
X15867481Y8364575D01*
X15998850Y8495944D01*
X16004235Y8501989D01*
X16009670Y8510422D01*
X16010636Y8512302D01*
X16014344Y8521649D01*
X16016122Y8529421D01*
X16016427Y8531504D01*
X16016935Y8539530D01*
X16016935Y8841486D01*
X16017392Y8844534D01*
X16018713Y8847277D01*
X16020796Y8849461D01*
X16024453Y8852408D01*
X16033953Y8862212D01*
X16042030Y8873185D01*
X16047059Y8882278D01*
X16049853Y8885529D01*
X16053816Y8887307D01*
X16058083Y8887307D01*
X16062045Y8885529D01*
X16064839Y8882278D01*
X16069868Y8873185D01*
X16077946Y8862212D01*
X16087445Y8852408D01*
X16098113Y8843924D01*
X16109848Y8836964D01*
X16122396Y8831681D01*
X16135553Y8828074D01*
X16149066Y8826246D01*
X16162731Y8826246D01*
X16176244Y8828074D01*
X16189401Y8831681D01*
X16201948Y8836964D01*
X16213683Y8843924D01*
X16224351Y8852408D01*
X16233851Y8862212D01*
X16241928Y8873185D01*
X16247059Y8882532D01*
X16249904Y8885783D01*
X16253815Y8887561D01*
X16258133Y8887561D01*
X16262045Y8885783D01*
X16264890Y8882532D01*
X16270020Y8873185D01*
X16278098Y8862212D01*
X16287597Y8852408D01*
X16291306Y8849461D01*
X16293388Y8847226D01*
X16294709Y8844483D01*
X16295166Y8841486D01*
X16295166Y8701328D01*
X16295674Y8693302D01*
X16295979Y8691219D01*
X16297757Y8683447D01*
X16301466Y8674100D01*
X16302431Y8672220D01*
X16307866Y8663787D01*
X16313251Y8657742D01*
X16466718Y8504275D01*
X16472763Y8498890D01*
X16481196Y8493455D01*
X16483076Y8492490D01*
X16492423Y8488781D01*
X16500195Y8487003D01*
X16502278Y8486698D01*
X16510304Y8486190D01*
X16865295Y8486190D01*
X16873321Y8486698D01*
X16875404Y8487003D01*
X16883176Y8488781D01*
X16892524Y8492490D01*
X16894403Y8493455D01*
X16902836Y8498890D01*
X16908881Y8504275D01*
X17060824Y8656218D01*
X17066209Y8662263D01*
X17071644Y8670696D01*
X17072610Y8672576D01*
X17076318Y8681923D01*
X17078096Y8689695D01*
X17078401Y8691778D01*
X17078909Y8699804D01*
X17078909Y9410395D01*
X17078401Y9418421D01*
X17078096Y9420504D01*
X17076318Y9428276D01*
X17072610Y9437624D01*
X17071644Y9439503D01*
X17066209Y9447936D01*
X17060824Y9453981D01*
X16941088Y9573768D01*
X16938904Y9577019D01*
X16938091Y9580930D01*
X16938904Y9584842D01*
X16941088Y9588093D01*
X16944390Y9590328D01*
X16948251Y9591090D01*
X18220486Y9591090D01*
X18224347Y9590328D01*
X18227649Y9588093D01*
X18452693Y9363049D01*
X18454928Y9359747D01*
X18455690Y9355886D01*
X18455690Y8665413D01*
X18454928Y8661552D01*
X18452693Y8658250D01*
X18367349Y8572906D01*
X18364047Y8570671D01*
X18360186Y8569909D01*
X18038013Y8569909D01*
X18034152Y8570671D01*
X18030850Y8572906D01*
X17943982Y8659774D01*
X17941747Y8663076D01*
X17940985Y8666937D01*
X17940985Y8841486D01*
X17941442Y8844534D01*
X17942763Y8847277D01*
X17944846Y8849461D01*
X17948503Y8852408D01*
X17958003Y8862212D01*
X17966080Y8873185D01*
X17971109Y8882278D01*
X17973903Y8885529D01*
X17977866Y8887307D01*
X17979237Y8887307D01*
X17977561Y8889796D01*
X17976748Y8893606D01*
X17977561Y8897874D01*
X17980710Y8911132D01*
X17982082Y8924696D01*
X17981625Y8938310D01*
X17979339Y8951772D01*
X17977002Y8959392D01*
X17976545Y8963152D01*
X17977561Y8966809D01*
X17979034Y8968841D01*
X17976240Y8969400D01*
X17973040Y8971432D01*
X17970804Y8974531D01*
X17969585Y8977172D01*
X17962219Y8988653D01*
X17953431Y8999067D01*
X17943322Y9008211D01*
X17932095Y9015933D01*
X17919903Y9022080D01*
X17907000Y9026550D01*
X17893639Y9029293D01*
X17880076Y9030208D01*
X17866461Y9029293D01*
X17853101Y9026550D01*
X17840198Y9022080D01*
X17828006Y9015933D01*
X17816779Y9008211D01*
X17806670Y8999067D01*
X17797881Y8988653D01*
X17790515Y8977172D01*
X17789194Y8974277D01*
X17786959Y8971178D01*
X17783708Y8969095D01*
X17780000Y8968384D01*
X17776240Y8969095D01*
X17772989Y8971178D01*
X17770754Y8974277D01*
X17769433Y8977172D01*
X17762067Y8988653D01*
X17753279Y8999067D01*
X17743170Y9008211D01*
X17731943Y9015933D01*
X17719751Y9022080D01*
X17706848Y9026550D01*
X17693487Y9029293D01*
X17679924Y9030208D01*
X17666309Y9029293D01*
X17652949Y9026550D01*
X17640046Y9022080D01*
X17627854Y9015933D01*
X17616627Y9008211D01*
X17606518Y8999067D01*
X17597729Y8988653D01*
X17590363Y8977172D01*
X17589144Y8974531D01*
X17586909Y8971432D01*
X17583708Y8969400D01*
X17579949Y8968689D01*
X17576190Y8969400D01*
X17572990Y8971432D01*
X17570754Y8974531D01*
X17569535Y8977172D01*
X17562169Y8988653D01*
X17553381Y8999067D01*
X17543272Y9008211D01*
X17532045Y9015933D01*
X17519853Y9022080D01*
X17506950Y9026550D01*
X17493589Y9029293D01*
X17480026Y9030208D01*
X17466411Y9029293D01*
X17453051Y9026550D01*
X17440148Y9022080D01*
X17427956Y9015933D01*
X17416729Y9008211D01*
X17406620Y8999067D01*
X17397831Y8988653D01*
X17390465Y8977172D01*
X17384725Y8964777D01*
X17380712Y8951772D01*
X17378426Y8938310D01*
X17377968Y8924696D01*
X17379340Y8911132D01*
X17382490Y8897874D01*
X17387417Y8885123D01*
X17393970Y8873185D01*
X17402048Y8862212D01*
X17411547Y8852408D01*
X17415205Y8849461D01*
X17417288Y8847226D01*
X17418659Y8844483D01*
X17419116Y8841486D01*
X17419116Y8594039D01*
X17418304Y8590127D01*
X17416119Y8586876D01*
X17262449Y8433206D01*
X17259147Y8430971D01*
X17255286Y8430209D01*
X16103904Y8430209D01*
X16095878Y8429701D01*
X16093795Y8429396D01*
X16086023Y8427618D01*
X16076676Y8423910D01*
X16074796Y8422944D01*
X16066363Y8417509D01*
X16060318Y8412124D01*
X15832175Y8183981D01*
X15826790Y8177936D01*
X15821355Y8169503D01*
X15820390Y8167624D01*
X15816681Y8158276D01*
X15814903Y8150504D01*
X15814598Y8148421D01*
X15814090Y8140395D01*
X15814090Y8034680D01*
X15813328Y8030768D01*
X15811093Y8027466D01*
X15807842Y8025282D01*
X15803930Y8024520D01*
X15800578Y8024520D01*
X15794228Y8023809D01*
X15788792Y8021878D01*
X15783864Y8018780D01*
X15779800Y8014716D01*
X15776701Y8009788D01*
X15774822Y8004352D01*
X15774111Y7998053D01*
X15774111Y7699146D01*
X15774822Y7692847D01*
X15776701Y7687411D01*
X15779800Y7682484D01*
X15783864Y7678420D01*
X15788792Y7675321D01*
X15794228Y7673390D01*
X15800578Y7672679D01*
X15949422Y7672679D01*
X15955772Y7673390D01*
X15961207Y7675321D01*
X15966135Y7678420D01*
X15970199Y7682484D01*
X15973298Y7687411D01*
X15975177Y7692847D01*
X15975888Y7699146D01*
X15975888Y7998053D01*
X15975177Y8004352D01*
X15973298Y8009788D01*
X15970199Y8014716D01*
X15966135Y8018780D01*
X15961207Y8021878D01*
X15955772Y8023809D01*
X15949422Y8024520D01*
X15946069Y8024520D01*
X15942157Y8025282D01*
X15938906Y8027466D01*
X15936671Y8030768D01*
X15935909Y8034680D01*
X15935909Y8111286D01*
X15936671Y8115147D01*
X15938906Y8118449D01*
X16125850Y8305393D01*
X16129152Y8307628D01*
X16133013Y8308390D01*
X17284395Y8308390D01*
X17292421Y8308898D01*
X17294504Y8309203D01*
X17302276Y8310981D01*
X17311624Y8314690D01*
X17313503Y8315655D01*
X17321936Y8321090D01*
X17327981Y8326475D01*
X17522850Y8521293D01*
X17528184Y8527338D01*
X17529454Y8529066D01*
X17534636Y8537651D01*
X17537684Y8545017D01*
X17540122Y8554770D01*
X17540427Y8556853D01*
X17540884Y8564930D01*
X17540884Y8841486D01*
X17541341Y8844483D01*
X17542713Y8847226D01*
X17544796Y8849461D01*
X17548453Y8852408D01*
X17557953Y8862212D01*
X17566030Y8873185D01*
X17571059Y8882278D01*
X17573853Y8885529D01*
X17577816Y8887307D01*
X17582083Y8887307D01*
X17586045Y8885529D01*
X17588839Y8882278D01*
X17593868Y8873185D01*
X17601946Y8862212D01*
X17611445Y8852408D01*
X17615154Y8849461D01*
X17617236Y8847226D01*
X17618557Y8844483D01*
X17619014Y8841486D01*
X17619014Y8476437D01*
X17618252Y8472576D01*
X17616017Y8469274D01*
X17402149Y8255406D01*
X17398847Y8253171D01*
X17394986Y8252409D01*
X16243604Y8252409D01*
X16235578Y8251901D01*
X16233495Y8251596D01*
X16225723Y8249818D01*
X16216376Y8246109D01*
X16214496Y8245144D01*
X16206063Y8239709D01*
X16200018Y8234324D01*
X16086175Y8120481D01*
X16080790Y8114436D01*
X16075355Y8106003D01*
X16074390Y8104124D01*
X16070681Y8094776D01*
X16068903Y8087004D01*
X16068598Y8084921D01*
X16068090Y8076895D01*
X16068090Y8034680D01*
X16067328Y8030768D01*
X16065093Y8027466D01*
X16061842Y8025282D01*
X16057930Y8024520D01*
X16054578Y8024520D01*
X16048228Y8023809D01*
X16042792Y8021878D01*
X16037864Y8018780D01*
X16033800Y8014716D01*
X16030701Y8009788D01*
X16028822Y8004352D01*
X16028111Y7998053D01*
X16028111Y7699146D01*
X16028822Y7692847D01*
X16030701Y7687411D01*
X16033800Y7682484D01*
X16037864Y7678420D01*
X16042792Y7675321D01*
X16048228Y7673390D01*
X16054578Y7672679D01*
X16203422Y7672679D01*
X16209772Y7673390D01*
X16215207Y7675321D01*
X16220135Y7678420D01*
X16224199Y7682484D01*
X16227298Y7687411D01*
X16229177Y7692847D01*
X16229888Y7699146D01*
X16229888Y7998053D01*
X16229177Y8004352D01*
X16227298Y8009788D01*
X16224199Y8014716D01*
X16220135Y8018780D01*
X16215207Y8021878D01*
X16209772Y8023809D01*
X16203422Y8024520D01*
X16200069Y8024520D01*
X16196157Y8025282D01*
X16192906Y8027466D01*
X16190671Y8030768D01*
X16189909Y8034680D01*
X16189909Y8047786D01*
X16190671Y8051647D01*
X16192906Y8054949D01*
X16265550Y8127593D01*
X16268852Y8129828D01*
X16272713Y8130590D01*
X17424095Y8130590D01*
X17432121Y8131098D01*
X17434204Y8131403D01*
X17441976Y8133181D01*
X17451324Y8136890D01*
X17453203Y8137855D01*
X17461636Y8143290D01*
X17467681Y8148675D01*
X17722748Y8403742D01*
X17728133Y8409787D01*
X17733568Y8418220D01*
X17734534Y8420100D01*
X17738242Y8429447D01*
X17740020Y8437219D01*
X17740325Y8439302D01*
X17740833Y8447328D01*
X17740833Y8841486D01*
X17741290Y8844534D01*
X17742611Y8847277D01*
X17744694Y8849461D01*
X17748351Y8852408D01*
X17757851Y8862212D01*
X17765928Y8873185D01*
X17771059Y8882532D01*
X17773904Y8885783D01*
X17777815Y8887561D01*
X17782133Y8887561D01*
X17786045Y8885783D01*
X17788890Y8882532D01*
X17794020Y8873185D01*
X17802098Y8862212D01*
X17811597Y8852408D01*
X17815306Y8849461D01*
X17817388Y8847226D01*
X17818709Y8844483D01*
X17819166Y8841486D01*
X17819166Y8637828D01*
X17819674Y8629802D01*
X17819979Y8627719D01*
X17821757Y8619947D01*
X17825466Y8610600D01*
X17826431Y8608720D01*
X17831866Y8600287D01*
X17837251Y8594242D01*
X17965318Y8466175D01*
X17971363Y8460790D01*
X17979796Y8455355D01*
X17981676Y8454390D01*
X17991023Y8450681D01*
X17998795Y8448903D01*
X18000878Y8448598D01*
X18008904Y8448090D01*
X18389295Y8448090D01*
X18397321Y8448598D01*
X18399404Y8448903D01*
X18407176Y8450681D01*
X18416524Y8454390D01*
X18418403Y8455355D01*
X18426836Y8460790D01*
X18432881Y8466175D01*
X18559424Y8592718D01*
X18564809Y8598763D01*
X18570244Y8607196D01*
X18571210Y8609076D01*
X18574918Y8618423D01*
X18576696Y8626195D01*
X18577001Y8628278D01*
X18577509Y8636304D01*
X18577509Y9384995D01*
X18577001Y9393021D01*
X18576696Y9395104D01*
X18574918Y9402876D01*
X18571210Y9412224D01*
X18570244Y9414103D01*
X18564809Y9422536D01*
X18559424Y9428581D01*
X18293181Y9694824D01*
X18287136Y9700209D01*
X18278703Y9705644D01*
X18276824Y9706610D01*
X18267476Y9710318D01*
X18259704Y9712096D01*
X18257621Y9712401D01*
X18249595Y9712909D01*
X12446304Y9712909D01*
X12438278Y9712401D01*
X12436195Y9712096D01*
X12428423Y9710318D01*
X12419076Y9706610D01*
X12417196Y9705644D01*
X12408763Y9700209D01*
X12402718Y9694824D01*
X12161875Y9453981D01*
X12156490Y9447936D01*
X12151055Y9439503D01*
X12150090Y9437624D01*
X12146381Y9428276D01*
X12144603Y9420504D01*
X12144298Y9418421D01*
X12143790Y9410395D01*
X12143790Y7366304D01*
X12144298Y7358278D01*
X12144603Y7356195D01*
X12146381Y7348423D01*
X12150090Y7339075D01*
X12151055Y7337196D01*
X12156490Y7328763D01*
X12161875Y7322718D01*
X12428118Y7056475D01*
X12434163Y7051090D01*
X12442596Y7045655D01*
X12444476Y7044690D01*
X12453823Y7040981D01*
X12461595Y7039203D01*
X12463678Y7038898D01*
G37*
G36*
X13552424Y8972550D02*
G01*
X13599617Y8972550D01*
X13597483Y8977172D01*
X13590117Y8988653D01*
X13581329Y8999067D01*
X13571219Y9008211D01*
X13559993Y9015933D01*
X13552424Y9019743D01*
G37*
G36*
X13886840Y7672679D02*
G01*
X13917422Y7672679D01*
X13923772Y7673390D01*
X13929207Y7675321D01*
X13934135Y7678420D01*
X13938199Y7682484D01*
X13941298Y7687411D01*
X13943177Y7692847D01*
X13943888Y7699146D01*
X13943888Y7767269D01*
X13886840Y7767269D01*
G37*
G36*
X13768578Y7672679D02*
G01*
X13799159Y7672679D01*
X13799159Y7767269D01*
X13742111Y7767269D01*
X13742111Y7699146D01*
X13742822Y7692847D01*
X13744701Y7687411D01*
X13747800Y7682484D01*
X13751864Y7678420D01*
X13756792Y7675321D01*
X13762228Y7673390D01*
G37*
G36*
X13260578Y7672679D02*
G01*
X13409422Y7672679D01*
X13415772Y7673390D01*
X13421207Y7675321D01*
X13426135Y7678420D01*
X13430199Y7682484D01*
X13433298Y7687411D01*
X13435177Y7692847D01*
X13435888Y7699146D01*
X13435888Y7998053D01*
X13435177Y8004352D01*
X13433298Y8009788D01*
X13430199Y8014716D01*
X13426135Y8018780D01*
X13421207Y8021878D01*
X13415772Y8023809D01*
X13409422Y8024520D01*
X13260578Y8024520D01*
X13254228Y8023809D01*
X13248792Y8021878D01*
X13243864Y8018780D01*
X13239800Y8014716D01*
X13236701Y8009788D01*
X13234822Y8004352D01*
X13234111Y7998053D01*
X13234111Y7699146D01*
X13234822Y7692847D01*
X13236701Y7687411D01*
X13239800Y7682484D01*
X13243864Y7678420D01*
X13248792Y7675321D01*
X13254228Y7673390D01*
G37*
G36*
X15038578Y7672679D02*
G01*
X15187422Y7672679D01*
X15193772Y7673390D01*
X15199207Y7675321D01*
X15204135Y7678420D01*
X15208199Y7682484D01*
X15211298Y7687411D01*
X15213177Y7692847D01*
X15213888Y7699146D01*
X15213888Y7998053D01*
X15213177Y8004352D01*
X15211298Y8009788D01*
X15208199Y8014716D01*
X15204135Y8018780D01*
X15199207Y8021878D01*
X15193772Y8023809D01*
X15187422Y8024520D01*
X15038578Y8024520D01*
X15032228Y8023809D01*
X15026792Y8021878D01*
X15021864Y8018780D01*
X15017800Y8014716D01*
X15014701Y8009788D01*
X15012822Y8004352D01*
X15012111Y7998053D01*
X15012111Y7699146D01*
X15012822Y7692847D01*
X15014701Y7687411D01*
X15017800Y7682484D01*
X15021864Y7678420D01*
X15026792Y7675321D01*
X15032228Y7673390D01*
G37*
G36*
X13006578Y7672679D02*
G01*
X13155422Y7672679D01*
X13161772Y7673390D01*
X13167207Y7675321D01*
X13172135Y7678420D01*
X13176199Y7682484D01*
X13179298Y7687411D01*
X13181177Y7692847D01*
X13181888Y7699146D01*
X13181888Y7998053D01*
X13181177Y8004352D01*
X13179298Y8009788D01*
X13176199Y8014716D01*
X13172135Y8018780D01*
X13167207Y8021878D01*
X13161772Y8023809D01*
X13155422Y8024520D01*
X13006578Y8024520D01*
X13000228Y8023809D01*
X12994792Y8021878D01*
X12989864Y8018780D01*
X12985800Y8014716D01*
X12982702Y8009788D01*
X12980822Y8004352D01*
X12980111Y7998053D01*
X12980111Y7699146D01*
X12980822Y7692847D01*
X12982702Y7687411D01*
X12985800Y7682484D01*
X12989864Y7678420D01*
X12994792Y7675321D01*
X13000228Y7673390D01*
G37*
G36*
X11684304Y4180890D02*
G01*
X12534595Y4180890D01*
X12542621Y4181398D01*
X12544704Y4181703D01*
X12552476Y4183481D01*
X12561824Y4187190D01*
X12563703Y4188155D01*
X12572136Y4193590D01*
X12578181Y4198975D01*
X12874650Y4495393D01*
X12877952Y4497628D01*
X12881813Y4498390D01*
X15595295Y4498390D01*
X15603321Y4498898D01*
X15605404Y4499203D01*
X15613176Y4500981D01*
X15622524Y4504690D01*
X15624403Y4505655D01*
X15632836Y4511090D01*
X15638881Y4516475D01*
X15752724Y4630318D01*
X15758109Y4636363D01*
X15763544Y4644796D01*
X15764510Y4646676D01*
X15768218Y4656023D01*
X15769996Y4663795D01*
X15770301Y4665878D01*
X15770809Y4673904D01*
X15770809Y4990795D01*
X15770301Y4998821D01*
X15769996Y5000904D01*
X15768218Y5008676D01*
X15764510Y5018024D01*
X15763544Y5019903D01*
X15758109Y5028336D01*
X15752724Y5034381D01*
X15664281Y5122824D01*
X15658236Y5128209D01*
X15649803Y5133644D01*
X15647924Y5134610D01*
X15638576Y5138318D01*
X15630804Y5140096D01*
X15628721Y5140401D01*
X15620695Y5140909D01*
X15343987Y5140909D01*
X15339618Y5141874D01*
X15335453Y5145430D01*
X15325902Y5154371D01*
X15315234Y5161940D01*
X15303601Y5167934D01*
X15291257Y5172303D01*
X15279878Y5174691D01*
X15276169Y5176266D01*
X15273375Y5179110D01*
X15271953Y5182870D01*
X15272004Y5186832D01*
X15273629Y5190490D01*
X15276525Y5193233D01*
X15278963Y5194808D01*
X15283078Y5198872D01*
X15286126Y5203799D01*
X15288056Y5209235D01*
X15288768Y5215585D01*
X15288768Y5330190D01*
X15288056Y5336540D01*
X15286126Y5341975D01*
X15283078Y5346903D01*
X15278963Y5350967D01*
X15274086Y5354066D01*
X15268600Y5355945D01*
X15262301Y5356656D01*
X15126766Y5356656D01*
X15120416Y5355945D01*
X15114981Y5354066D01*
X15110053Y5350967D01*
X15105989Y5346903D01*
X15102890Y5341975D01*
X15100960Y5336540D01*
X15100249Y5330190D01*
X15100249Y5215585D01*
X15100960Y5209235D01*
X15102890Y5203799D01*
X15105989Y5198872D01*
X15110053Y5194808D01*
X15114981Y5191709D01*
X15120416Y5189778D01*
X15126766Y5189067D01*
X15227757Y5189067D01*
X15231719Y5188305D01*
X15235021Y5186019D01*
X15237206Y5182616D01*
X15237917Y5178602D01*
X15237002Y5174691D01*
X15234615Y5171440D01*
X15231160Y5169357D01*
X15227198Y5167934D01*
X15215565Y5161940D01*
X15204897Y5154371D01*
X15195346Y5145430D01*
X15187066Y5135270D01*
X15180259Y5124094D01*
X15175077Y5112105D01*
X15173604Y5106873D01*
X15171521Y5103012D01*
X15168067Y5100370D01*
X15163800Y5099456D01*
X15159532Y5100370D01*
X15156078Y5103012D01*
X15153995Y5106873D01*
X15152573Y5112105D01*
X15147340Y5124094D01*
X15140533Y5135270D01*
X15132253Y5145430D01*
X15122702Y5154371D01*
X15112034Y5161940D01*
X15100401Y5167934D01*
X15088057Y5172303D01*
X15075255Y5174996D01*
X15062200Y5175859D01*
X15049144Y5174996D01*
X15036342Y5172303D01*
X15023998Y5167934D01*
X15012365Y5161940D01*
X15001697Y5154371D01*
X14992146Y5145430D01*
X14987981Y5141874D01*
X14983612Y5140909D01*
X14930069Y5140909D01*
X14926157Y5141671D01*
X14922906Y5143906D01*
X14920671Y5147157D01*
X14919909Y5151069D01*
X14919909Y5630519D01*
X14920671Y5634431D01*
X14922906Y5637733D01*
X14926157Y5639917D01*
X14930069Y5640679D01*
X14933422Y5640679D01*
X14939772Y5641390D01*
X14945207Y5643321D01*
X14950135Y5646420D01*
X14954199Y5650484D01*
X14957298Y5655411D01*
X14959177Y5660847D01*
X14959888Y5667146D01*
X14959888Y5966053D01*
X14959177Y5972352D01*
X14957298Y5977788D01*
X14954199Y5982716D01*
X14950135Y5986780D01*
X14945207Y5989878D01*
X14939772Y5991809D01*
X14933422Y5992520D01*
X14784578Y5992520D01*
X14778228Y5991809D01*
X14772792Y5989878D01*
X14767864Y5986780D01*
X14763800Y5982716D01*
X14760701Y5977788D01*
X14758822Y5972352D01*
X14758111Y5966053D01*
X14758111Y5667146D01*
X14758822Y5660847D01*
X14760701Y5655411D01*
X14763800Y5650484D01*
X14767864Y5646420D01*
X14772792Y5643321D01*
X14778228Y5641390D01*
X14784578Y5640679D01*
X14787930Y5640679D01*
X14791842Y5639917D01*
X14795093Y5637733D01*
X14797328Y5634431D01*
X14798090Y5630519D01*
X14798090Y5151069D01*
X14797328Y5147157D01*
X14795093Y5143906D01*
X14791842Y5141671D01*
X14787930Y5140909D01*
X14670887Y5140909D01*
X14666518Y5141874D01*
X14662353Y5145430D01*
X14652802Y5154371D01*
X14642134Y5161940D01*
X14630501Y5167934D01*
X14618157Y5172303D01*
X14605355Y5174996D01*
X14592300Y5175859D01*
X14585594Y5175402D01*
X14581174Y5176113D01*
X14577517Y5178602D01*
X14575231Y5182412D01*
X14574824Y5186832D01*
X14576298Y5191048D01*
X14580463Y5194808D01*
X14584578Y5198872D01*
X14587626Y5203799D01*
X14589556Y5209235D01*
X14590268Y5215585D01*
X14590268Y5330190D01*
X14589556Y5336540D01*
X14587626Y5341975D01*
X14584578Y5346903D01*
X14580463Y5350967D01*
X14575586Y5354066D01*
X14570100Y5355945D01*
X14563801Y5356656D01*
X14387322Y5356656D01*
X14381022Y5355945D01*
X14375536Y5354066D01*
X14370659Y5350967D01*
X14366544Y5346903D01*
X14363496Y5341975D01*
X14361566Y5336540D01*
X14360855Y5330190D01*
X14360855Y5215585D01*
X14361566Y5209235D01*
X14363496Y5203799D01*
X14366544Y5198872D01*
X14370659Y5194808D01*
X14375536Y5191709D01*
X14381022Y5189778D01*
X14387322Y5189067D01*
X14407591Y5189067D01*
X14410842Y5188458D01*
X14414042Y5189067D01*
X14554657Y5189067D01*
X14558619Y5188305D01*
X14561921Y5186019D01*
X14564106Y5182616D01*
X14564817Y5178602D01*
X14563902Y5174691D01*
X14561515Y5171440D01*
X14558060Y5169357D01*
X14554098Y5167934D01*
X14542465Y5161940D01*
X14531797Y5154371D01*
X14522246Y5145430D01*
X14513966Y5135270D01*
X14507159Y5124094D01*
X14501977Y5112105D01*
X14498421Y5099507D01*
X14496643Y5086553D01*
X14496643Y5073446D01*
X14498421Y5060492D01*
X14501977Y5047894D01*
X14507159Y5035905D01*
X14513966Y5024729D01*
X14522246Y5014569D01*
X14531797Y5005628D01*
X14542465Y4998059D01*
X14554098Y4992065D01*
X14566442Y4987696D01*
X14579244Y4985004D01*
X14592300Y4984140D01*
X14605355Y4985004D01*
X14618157Y4987696D01*
X14630501Y4992065D01*
X14642134Y4998059D01*
X14652802Y5005628D01*
X14662353Y5014569D01*
X14666518Y5018125D01*
X14670887Y5019090D01*
X14983612Y5019090D01*
X14987981Y5018125D01*
X14992146Y5014569D01*
X15001697Y5005628D01*
X15012365Y4998059D01*
X15023998Y4992065D01*
X15036342Y4987696D01*
X15049144Y4985004D01*
X15062200Y4984140D01*
X15075255Y4985004D01*
X15088057Y4987696D01*
X15100401Y4992065D01*
X15112034Y4998059D01*
X15122702Y5005628D01*
X15132253Y5014569D01*
X15140533Y5024729D01*
X15147340Y5035905D01*
X15152573Y5047894D01*
X15153995Y5053126D01*
X15156078Y5056987D01*
X15159532Y5059629D01*
X15163800Y5060543D01*
X15168067Y5059629D01*
X15171521Y5056987D01*
X15173604Y5053126D01*
X15175077Y5047894D01*
X15180259Y5035905D01*
X15187066Y5024729D01*
X15195346Y5014569D01*
X15204897Y5005628D01*
X15215565Y4998059D01*
X15227198Y4992065D01*
X15239542Y4987696D01*
X15252344Y4985004D01*
X15265400Y4984140D01*
X15278455Y4985004D01*
X15291257Y4987696D01*
X15303601Y4992065D01*
X15315234Y4998059D01*
X15325902Y5005628D01*
X15335453Y5014569D01*
X15339618Y5018125D01*
X15343987Y5019090D01*
X15591586Y5019090D01*
X15595447Y5018328D01*
X15598749Y5016093D01*
X15645993Y4968849D01*
X15648228Y4965547D01*
X15648990Y4961686D01*
X15648990Y4703013D01*
X15648228Y4699152D01*
X15645993Y4695850D01*
X15573349Y4623206D01*
X15570047Y4620971D01*
X15566186Y4620209D01*
X12852704Y4620209D01*
X12844678Y4619701D01*
X12842595Y4619396D01*
X12834823Y4617618D01*
X12825476Y4613910D01*
X12823596Y4612944D01*
X12815163Y4607509D01*
X12809118Y4602124D01*
X12512649Y4305706D01*
X12509347Y4303471D01*
X12505486Y4302709D01*
X11713413Y4302709D01*
X11709552Y4303471D01*
X11706250Y4305706D01*
X11460632Y4551324D01*
X11458397Y4554626D01*
X11457635Y4558487D01*
X11457635Y4764786D01*
X11458092Y4767834D01*
X11459413Y4770577D01*
X11461496Y4772761D01*
X11465153Y4775708D01*
X11474653Y4785512D01*
X11482730Y4796485D01*
X11487759Y4805578D01*
X11490553Y4808829D01*
X11494516Y4810607D01*
X11495887Y4810607D01*
X11494211Y4813096D01*
X11493398Y4816906D01*
X11494211Y4821174D01*
X11497360Y4834432D01*
X11498732Y4847996D01*
X11498275Y4861610D01*
X11495989Y4875072D01*
X11493652Y4882692D01*
X11493195Y4886452D01*
X11494211Y4890109D01*
X11495684Y4892141D01*
X11492890Y4892700D01*
X11489690Y4894732D01*
X11487454Y4897831D01*
X11486235Y4900472D01*
X11478869Y4911953D01*
X11470081Y4922367D01*
X11459972Y4931511D01*
X11448745Y4939233D01*
X11436553Y4945380D01*
X11423650Y4949850D01*
X11410289Y4952593D01*
X11396726Y4953508D01*
X11383111Y4952593D01*
X11369751Y4949850D01*
X11356848Y4945380D01*
X11344656Y4939233D01*
X11333429Y4931511D01*
X11323320Y4922367D01*
X11314531Y4911953D01*
X11307165Y4900472D01*
X11301425Y4888077D01*
X11297412Y4875072D01*
X11295126Y4861610D01*
X11294668Y4847996D01*
X11296040Y4834432D01*
X11299190Y4821174D01*
X11304117Y4808423D01*
X11310670Y4796485D01*
X11318748Y4785512D01*
X11328247Y4775708D01*
X11331956Y4772761D01*
X11334038Y4770526D01*
X11335359Y4767783D01*
X11335816Y4764786D01*
X11335816Y4529378D01*
X11336324Y4521352D01*
X11336629Y4519269D01*
X11338407Y4511497D01*
X11342116Y4502150D01*
X11343081Y4500270D01*
X11348516Y4491837D01*
X11353901Y4485792D01*
X11640718Y4198975D01*
X11646763Y4193590D01*
X11655196Y4188155D01*
X11657076Y4187190D01*
X11666423Y4183481D01*
X11674195Y4181703D01*
X11676278Y4181398D01*
G37*
G36*
X14530578Y7672679D02*
G01*
X14679422Y7672679D01*
X14685772Y7673390D01*
X14691207Y7675321D01*
X14696135Y7678420D01*
X14700199Y7682484D01*
X14703298Y7687411D01*
X14705177Y7692847D01*
X14705888Y7699146D01*
X14705888Y7998053D01*
X14705177Y8004352D01*
X14703298Y8009788D01*
X14700199Y8014716D01*
X14696135Y8018780D01*
X14691207Y8021878D01*
X14685772Y8023809D01*
X14679422Y8024520D01*
X14530578Y8024520D01*
X14524228Y8023809D01*
X14518792Y8021878D01*
X14513864Y8018780D01*
X14509800Y8014716D01*
X14506701Y8009788D01*
X14504822Y8004352D01*
X14504111Y7998053D01*
X14504111Y7699146D01*
X14504822Y7692847D01*
X14506701Y7687411D01*
X14509800Y7682484D01*
X14513864Y7678420D01*
X14518792Y7675321D01*
X14524228Y7673390D01*
G37*
G36*
X15546578Y7672679D02*
G01*
X15695422Y7672679D01*
X15701772Y7673390D01*
X15707207Y7675321D01*
X15712135Y7678420D01*
X15716199Y7682484D01*
X15719298Y7687411D01*
X15721177Y7692847D01*
X15721888Y7699146D01*
X15721888Y7998053D01*
X15721177Y8004352D01*
X15719298Y8009788D01*
X15716199Y8014716D01*
X15712135Y8018780D01*
X15707207Y8021878D01*
X15701772Y8023809D01*
X15695422Y8024520D01*
X15546578Y8024520D01*
X15540228Y8023809D01*
X15534792Y8021878D01*
X15529864Y8018780D01*
X15525800Y8014716D01*
X15522701Y8009788D01*
X15520822Y8004352D01*
X15520111Y7998053D01*
X15520111Y7699146D01*
X15520822Y7692847D01*
X15522701Y7687411D01*
X15525800Y7682484D01*
X15529864Y7678420D01*
X15534792Y7675321D01*
X15540228Y7673390D01*
G37*
G36*
X14022578Y7672679D02*
G01*
X14171422Y7672679D01*
X14177772Y7673390D01*
X14183207Y7675321D01*
X14188135Y7678420D01*
X14192199Y7682484D01*
X14195298Y7687411D01*
X14197177Y7692847D01*
X14197888Y7699146D01*
X14197888Y7998053D01*
X14197177Y8004352D01*
X14195298Y8009788D01*
X14192199Y8014716D01*
X14188135Y8018780D01*
X14183207Y8021878D01*
X14177772Y8023809D01*
X14171422Y8024520D01*
X14022578Y8024520D01*
X14016228Y8023809D01*
X14010792Y8021878D01*
X14005864Y8018780D01*
X14001800Y8014716D01*
X13998701Y8009788D01*
X13996822Y8004352D01*
X13996111Y7998053D01*
X13996111Y7699146D01*
X13996822Y7692847D01*
X13998701Y7687411D01*
X14001800Y7682484D01*
X14005864Y7678420D01*
X14010792Y7675321D01*
X14016228Y7673390D01*
G37*
G36*
X15089124Y8972550D02*
G01*
X15136317Y8972550D01*
X15134183Y8977172D01*
X15126817Y8988653D01*
X15118029Y8999067D01*
X15107919Y9008211D01*
X15096693Y9015933D01*
X15089124Y9019743D01*
G37*
G36*
X15000224Y8836304D02*
G01*
X15000224Y8883650D01*
X14952421Y8883650D01*
X14953589Y8882278D01*
X14958618Y8873185D01*
X14966696Y8862212D01*
X14976195Y8852408D01*
X14986863Y8843924D01*
X14998598Y8836964D01*
G37*
G36*
X16511524Y8836304D02*
G01*
X16511524Y8883650D01*
X16463721Y8883650D01*
X16464889Y8882278D01*
X16469918Y8873185D01*
X16477996Y8862212D01*
X16487495Y8852408D01*
X16498163Y8843924D01*
X16509898Y8836964D01*
G37*
G36*
X18035524Y8836304D02*
G01*
X18035524Y8883650D01*
X17987721Y8883650D01*
X17988889Y8882278D01*
X17993918Y8873185D01*
X18001996Y8862212D01*
X18011495Y8852408D01*
X18022163Y8843924D01*
X18033898Y8836964D01*
G37*
G36*
X13463524Y8836304D02*
G01*
X13463524Y8883650D01*
X13415721Y8883650D01*
X13416889Y8882278D01*
X13421918Y8873185D01*
X13429996Y8862212D01*
X13439495Y8852408D01*
X13450163Y8843924D01*
X13461898Y8836964D01*
G37*
G36*
X13742111Y7929930D02*
G01*
X13799159Y7929930D01*
X13799159Y8024520D01*
X13768578Y8024520D01*
X13762228Y8023809D01*
X13756792Y8021878D01*
X13751864Y8018780D01*
X13747800Y8014716D01*
X13744701Y8009788D01*
X13742822Y8004352D01*
X13742111Y7998053D01*
G37*
G36*
X13886840Y7929930D02*
G01*
X13943888Y7929930D01*
X13943888Y7998053D01*
X13943177Y8004352D01*
X13941298Y8009788D01*
X13938199Y8014716D01*
X13934135Y8018780D01*
X13929207Y8021878D01*
X13923772Y8023809D01*
X13917422Y8024520D01*
X13886840Y8024520D01*
G37*
G36*
X15089124Y8836304D02*
G01*
X15090698Y8836964D01*
X15102433Y8843924D01*
X15113101Y8852408D01*
X15122601Y8862212D01*
X15130678Y8873185D01*
X15136418Y8883650D01*
X15089124Y8883650D01*
G37*
G36*
X13552424Y8836304D02*
G01*
X13553998Y8836964D01*
X13565733Y8843924D01*
X13576401Y8852408D01*
X13585901Y8862212D01*
X13593978Y8873185D01*
X13599718Y8883650D01*
X13552424Y8883650D01*
G37*
G36*
X16600424Y8836304D02*
G01*
X16601998Y8836964D01*
X16613733Y8843924D01*
X16624401Y8852408D01*
X16633901Y8862212D01*
X16641978Y8873185D01*
X16647718Y8883650D01*
X16600424Y8883650D01*
G37*
G36*
X18124424Y8836304D02*
G01*
X18125998Y8836964D01*
X18137733Y8843924D01*
X18148401Y8852408D01*
X18157901Y8862212D01*
X18165978Y8873185D01*
X18171718Y8883650D01*
X18124424Y8883650D01*
G37*

%LPD*%
D17*
X15252700Y5320609D02*
G01*
X15252700Y5225153D01*
X15252700Y5320609D02*
G01*
X15211790Y5320609D01*
X15198153Y5316062D01*
X15193609Y5311518D01*
X15189062Y5302427D01*
X15189062Y5293337D01*
X15193609Y5284246D01*
X15198153Y5279699D01*
X15211790Y5275153D01*
X15252700Y5275153D01*
X15220881Y5275153D02*
G01*
X15189062Y5225153D01*
X15159062Y5302427D02*
G01*
X15149972Y5306971D01*
X15136337Y5320609D01*
X15136337Y5225153D01*
X14554200Y5320609D02*
G01*
X14554200Y5225153D01*
X14554200Y5320609D02*
G01*
X14513290Y5320609D01*
X14499653Y5316062D01*
X14495109Y5311518D01*
X14490562Y5302427D01*
X14490562Y5293337D01*
X14495109Y5284246D01*
X14499653Y5279699D01*
X14513290Y5275153D01*
X14554200Y5275153D01*
X14522381Y5275153D02*
G01*
X14490562Y5225153D01*
X14456018Y5297881D02*
G01*
X14456018Y5302427D01*
X14451472Y5311518D01*
X14446928Y5316062D01*
X14437837Y5320609D01*
X14419653Y5320609D01*
X14410563Y5316062D01*
X14406018Y5311518D01*
X14401472Y5302427D01*
X14401472Y5293337D01*
X14406018Y5284246D01*
X14415109Y5270609D01*
X14460562Y5225153D01*
X14396928Y5225153D01*
X13754100Y5307909D02*
G01*
X13754100Y5212453D01*
X13754100Y5307909D02*
G01*
X13713190Y5307909D01*
X13699553Y5303362D01*
X13695009Y5298818D01*
X13690462Y5289727D01*
X13690462Y5280637D01*
X13695009Y5271546D01*
X13699553Y5266999D01*
X13713190Y5262453D01*
X13754100Y5262453D01*
X13722281Y5262453D02*
G01*
X13690462Y5212453D01*
X13651372Y5307909D02*
G01*
X13601372Y5307909D01*
X13628644Y5271546D01*
X13615009Y5271546D01*
X13605918Y5266999D01*
X13601372Y5262453D01*
X13596828Y5248818D01*
X13596828Y5239727D01*
X13601372Y5226090D01*
X13610463Y5216999D01*
X13624100Y5212453D01*
X13637737Y5212453D01*
X13651372Y5216999D01*
X13655918Y5221546D01*
X13660462Y5230637D01*
X13055600Y5320609D02*
G01*
X13055600Y5225153D01*
X13055600Y5320609D02*
G01*
X13014690Y5320609D01*
X13001053Y5316062D01*
X12996509Y5311518D01*
X12991962Y5302427D01*
X12991962Y5293337D01*
X12996509Y5284246D01*
X13001053Y5279699D01*
X13014690Y5275153D01*
X13055600Y5275153D01*
X13023781Y5275153D02*
G01*
X12991962Y5225153D01*
X12916509Y5320609D02*
G01*
X12961962Y5256971D01*
X12893781Y5256971D01*
X12916509Y5320609D02*
G01*
X12916509Y5225153D01*
X17487900Y5092009D02*
G01*
X17487900Y4996553D01*
X17487900Y4996553D02*
G01*
X17433353Y4996553D01*
X17403353Y5092009D02*
G01*
X17403353Y4996553D01*
X17403353Y5092009D02*
G01*
X17344263Y5092009D01*
X17403353Y5046553D02*
G01*
X17366990Y5046553D01*
X17403353Y4996553D02*
G01*
X17344263Y4996553D01*
X17314263Y5092009D02*
G01*
X17314263Y4996553D01*
X17314263Y5092009D02*
G01*
X17282444Y5092009D01*
X17268809Y5087462D01*
X17259719Y5078371D01*
X17255172Y5069281D01*
X17250628Y5055646D01*
X17250628Y5032918D01*
X17255172Y5019281D01*
X17259719Y5010190D01*
X17268809Y5001099D01*
X17282444Y4996553D01*
X17314263Y4996553D01*
X13448144Y9437946D02*
G01*
X13448144Y9243984D01*
X13512800Y9437946D02*
G01*
X13383491Y9437946D01*
X13322531Y9437946D02*
G01*
X13322531Y9243984D01*
X13322531Y9437946D02*
G01*
X13202457Y9437946D01*
X13322531Y9345584D02*
G01*
X13248640Y9345584D01*
X13322531Y9243984D02*
G01*
X13202457Y9243984D01*
X13141497Y9437946D02*
G01*
X13141497Y9243984D01*
X13141497Y9437946D02*
G01*
X13067606Y9243984D01*
X12993715Y9437946D02*
G01*
X13067606Y9243984D01*
X12993715Y9437946D02*
G01*
X12993715Y9243984D01*
X12932755Y9437946D02*
G01*
X12932755Y9243984D01*
X12932755Y9437946D02*
G01*
X12849628Y9437946D01*
X12821920Y9428711D01*
X12812684Y9419475D01*
X12803446Y9401002D01*
X12803446Y9373293D01*
X12812684Y9354820D01*
X12821920Y9345584D01*
X12849628Y9336346D01*
X12932755Y9336346D01*
X15201900Y9488746D02*
G01*
X15201900Y9294784D01*
X15201900Y9488746D02*
G01*
X15137244Y9488746D01*
X15109535Y9479511D01*
X15091064Y9461037D01*
X15081826Y9442564D01*
X15072591Y9414855D01*
X15072591Y9368675D01*
X15081826Y9340964D01*
X15091064Y9322493D01*
X15109535Y9304020D01*
X15137244Y9294784D01*
X15201900Y9294784D01*
X15011631Y9488746D02*
G01*
X15011631Y9294784D01*
X14882322Y9488746D02*
G01*
X14882322Y9294784D01*
X15011631Y9396384D02*
G01*
X14882322Y9396384D01*
X14812124Y9442564D02*
G01*
X14812124Y9451802D01*
X14802888Y9470275D01*
X14793653Y9479511D01*
X14775179Y9488746D01*
X14738235Y9488746D01*
X14719762Y9479511D01*
X14710524Y9470275D01*
X14701288Y9451802D01*
X14701288Y9433328D01*
X14710524Y9414855D01*
X14728997Y9387146D01*
X14821362Y9294784D01*
X14692053Y9294784D01*
X14621855Y9442564D02*
G01*
X14621855Y9451802D01*
X14612620Y9470275D01*
X14603384Y9479511D01*
X14584911Y9488746D01*
X14547964Y9488746D01*
X14529493Y9479511D01*
X14520255Y9470275D01*
X14511020Y9451802D01*
X14511020Y9433328D01*
X14520255Y9414855D01*
X14538728Y9387146D01*
X14631093Y9294784D01*
X14501784Y9294784D01*
X14440824Y9230128D02*
G01*
X14274568Y9230128D01*
X14213608Y9451802D02*
G01*
X14195135Y9461037D01*
X14167426Y9488746D01*
X14167426Y9294784D01*
X16776700Y9488746D02*
G01*
X16776700Y9294784D01*
X16776700Y9488746D02*
G01*
X16712044Y9488746D01*
X16684335Y9479511D01*
X16665864Y9461037D01*
X16656626Y9442564D01*
X16647391Y9414855D01*
X16647391Y9368675D01*
X16656626Y9340964D01*
X16665864Y9322493D01*
X16684335Y9304020D01*
X16712044Y9294784D01*
X16776700Y9294784D01*
X16586431Y9488746D02*
G01*
X16586431Y9294784D01*
X16457122Y9488746D02*
G01*
X16457122Y9294784D01*
X16586431Y9396384D02*
G01*
X16457122Y9396384D01*
X16386924Y9442564D02*
G01*
X16386924Y9451802D01*
X16377688Y9470275D01*
X16368453Y9479511D01*
X16349979Y9488746D01*
X16313035Y9488746D01*
X16294562Y9479511D01*
X16285324Y9470275D01*
X16276088Y9451802D01*
X16276088Y9433328D01*
X16285324Y9414855D01*
X16303797Y9387146D01*
X16396162Y9294784D01*
X16266853Y9294784D01*
X16196655Y9442564D02*
G01*
X16196655Y9451802D01*
X16187420Y9470275D01*
X16178184Y9479511D01*
X16159711Y9488746D01*
X16122764Y9488746D01*
X16104293Y9479511D01*
X16095055Y9470275D01*
X16085820Y9451802D01*
X16085820Y9433328D01*
X16095055Y9414855D01*
X16113528Y9387146D01*
X16205893Y9294784D01*
X16076584Y9294784D01*
X16015624Y9230128D02*
G01*
X15849368Y9230128D01*
X15779173Y9442564D02*
G01*
X15779173Y9451802D01*
X15769935Y9470275D01*
X15760700Y9479511D01*
X15742226Y9488746D01*
X15705282Y9488746D01*
X15686808Y9479511D01*
X15677573Y9470275D01*
X15668335Y9451802D01*
X15668335Y9433328D01*
X15677573Y9414855D01*
X15696044Y9387146D01*
X15788408Y9294784D01*
X15659100Y9294784D01*
X18085955Y9417164D02*
G01*
X18095191Y9435637D01*
X18113664Y9454111D01*
X18132135Y9463346D01*
X18169082Y9463346D01*
X18187555Y9454111D01*
X18206026Y9435637D01*
X18215264Y9417164D01*
X18224500Y9389455D01*
X18224500Y9343275D01*
X18215264Y9315564D01*
X18206026Y9297093D01*
X18187555Y9278620D01*
X18169082Y9269384D01*
X18132135Y9269384D01*
X18113664Y9278620D01*
X18095191Y9297093D01*
X18085955Y9315564D01*
X18085955Y9343275D01*
X18132135Y9343275D02*
G01*
X18085955Y9343275D01*
X17951104Y9463346D02*
G01*
X18024995Y9269384D01*
X17951104Y9463346D02*
G01*
X17877213Y9269384D01*
X17997284Y9334037D02*
G01*
X17904922Y9334037D01*
X17816253Y9463346D02*
G01*
X17816253Y9324802D01*
X17807015Y9297093D01*
X17788544Y9278620D01*
X17760835Y9269384D01*
X17742362Y9269384D01*
X17714653Y9278620D01*
X17696179Y9297093D01*
X17686944Y9324802D01*
X17686944Y9463346D01*
X17487437Y9417164D02*
G01*
X17496675Y9435637D01*
X17515146Y9454111D01*
X17533620Y9463346D01*
X17570564Y9463346D01*
X17589037Y9454111D01*
X17607511Y9435637D01*
X17616746Y9417164D01*
X17625984Y9389455D01*
X17625984Y9343275D01*
X17616746Y9315564D01*
X17607511Y9297093D01*
X17589037Y9278620D01*
X17570564Y9269384D01*
X17533620Y9269384D01*
X17515146Y9278620D01*
X17496675Y9297093D01*
X17487437Y9315564D01*
X17487437Y9343275D01*
X17533620Y9343275D02*
G01*
X17487437Y9343275D01*
X17426477Y9463346D02*
G01*
X17426477Y9269384D01*
X17426477Y9463346D02*
G01*
X17306404Y9463346D01*
X17426477Y9370984D02*
G01*
X17352586Y9370984D01*
X17426477Y9269384D02*
G01*
X17306404Y9269384D01*
X12369800Y5424746D02*
G01*
X12369800Y5230784D01*
X12369800Y5424746D02*
G01*
X12286673Y5424746D01*
X12258964Y5415511D01*
X12249726Y5406275D01*
X12240491Y5387802D01*
X12240491Y5369328D01*
X12249726Y5350855D01*
X12258964Y5341620D01*
X12286673Y5332384D01*
X12369800Y5332384D02*
G01*
X12286673Y5332384D01*
X12258964Y5323146D01*
X12249726Y5313911D01*
X12240491Y5295437D01*
X12240491Y5267728D01*
X12249726Y5249255D01*
X12258964Y5240020D01*
X12286673Y5230784D01*
X12369800Y5230784D01*
X12105640Y5424746D02*
G01*
X12179531Y5230784D01*
X12105640Y5424746D02*
G01*
X12031748Y5230784D01*
X12151822Y5295437D02*
G01*
X12059457Y5295437D01*
X11906135Y5424746D02*
G01*
X11906135Y5230784D01*
X11970788Y5424746D02*
G01*
X11841479Y5424746D01*
X11697393Y5397037D02*
G01*
X11697393Y5230784D01*
X11780520Y5313911D02*
G01*
X11614264Y5313911D01*
X11553304Y5424746D02*
G01*
X11553304Y5230784D01*
X11553304Y5230784D02*
G01*
X11442468Y5230784D01*
X11381508Y5424746D02*
G01*
X11381508Y5286202D01*
X11372273Y5258493D01*
X11353800Y5240020D01*
X11326091Y5230784D01*
X11307617Y5230784D01*
X11279908Y5240020D01*
X11261435Y5258493D01*
X11252200Y5286202D01*
X11252200Y5424746D01*
X11191240Y5424746D02*
G01*
X11191240Y5230784D01*
X11191240Y5424746D02*
G01*
X11117348Y5230784D01*
X11043457Y5424746D02*
G01*
X11117348Y5230784D01*
X11043457Y5424746D02*
G01*
X11043457Y5230784D01*
D15*
X14444725Y8928100D02*
G01*
X14444725Y8643874D01*
X14859000Y8229600D01*
X14859000Y7848600D01*
X13335000Y5080000D02*
G01*
X13589000Y5080000D01*
X13335000Y5816600D02*
G01*
X13335000Y5080000D01*
X13093700Y5080000D01*
X14859000Y5080000D02*
G01*
X14592300Y5080000D01*
X14859000Y5816600D02*
G01*
X14859000Y5080000D01*
X15062200Y5080000D01*
X11796699Y4851400D02*
G01*
X11796699Y4586300D01*
X11938000Y4445000D01*
X12319000Y4445000D01*
X12446000Y4572000D01*
X12446000Y4940300D01*
X12585700Y5080000D01*
X12890500Y5080000D01*
X17480000Y8928100D02*
G01*
X17480000Y8564600D01*
X17284700Y8369300D01*
X16103600Y8369300D01*
X15875000Y8140700D01*
X15875000Y7848600D01*
D16*
X16383000Y5816600D02*
G01*
X16383000Y5168900D01*
X16738600Y4813300D01*
X17246600Y4813300D01*
D15*
X15956025Y8928100D02*
G01*
X15956025Y8539226D01*
X15824200Y8407400D01*
X15557500Y8407400D01*
X15367000Y8216900D01*
X15367000Y7848600D01*
X12908025Y8928100D02*
G01*
X12908025Y8516874D01*
X13093700Y8331200D01*
X14160500Y8331200D01*
X14351000Y8140700D01*
X14351000Y7848600D01*
X11396725Y4851400D02*
G01*
X11396725Y4529073D01*
X11684000Y4241800D01*
X12534900Y4241800D01*
X12852400Y4559300D01*
X15595600Y4559300D01*
X15709900Y4673600D01*
X15709900Y4991100D01*
X15621000Y5080000D01*
X15265400Y5080000D01*
X13589000Y7848600D02*
G01*
X13589000Y7226300D01*
X13462000Y7099300D01*
X12471400Y7099300D01*
X12204700Y7366000D01*
X12204700Y9410700D01*
X12446000Y9652000D01*
X13716000Y9652000D01*
X13970000Y9398000D01*
X13970000Y8686800D01*
X13804900Y8521700D01*
X13449300Y8521700D01*
X13308075Y8662924D01*
X13308075Y8928100D01*
X16776700Y9652000D02*
G01*
X18249900Y9652000D01*
X18516600Y9385300D01*
X18516600Y8636000D01*
X18389600Y8509000D01*
X18008600Y8509000D01*
X17880075Y8637524D01*
X17880075Y8928100D01*
X15265400Y9652000D02*
G01*
X16776700Y9652000D01*
X17018000Y9410700D01*
X17018000Y8699500D01*
X16865600Y8547100D01*
X16510000Y8547100D01*
X16356075Y8701024D01*
X16356075Y8928100D01*
X13716000Y9652000D02*
G01*
X15265400Y9652000D01*
X15494000Y9423400D01*
X15494000Y8674100D01*
X15316200Y8496300D01*
X15011400Y8496300D01*
X14844775Y8662924D01*
X14844775Y8928100D01*
X17679924Y8928100D02*
G01*
X17679924Y8447024D01*
X17424400Y8191500D01*
X16243300Y8191500D01*
X16129000Y8077200D01*
X16129000Y7848600D01*
D11*
G01*
X10622000Y9423400D03*
G01*
X10822000Y9423400D03*
G01*
X11021999Y9423400D03*
G01*
X11221999Y9423400D03*
G01*
X11996699Y4851400D03*
G01*
X11396700Y4851400D03*
G01*
X11596700Y4851400D03*
G01*
X11796699Y4851400D03*
G01*
X18079999Y8928100D03*
G01*
X17480000Y8928100D03*
G01*
X17680000Y8928100D03*
G01*
X17879999Y8928100D03*
D12*
G01*
X13081000Y5816600D03*
G01*
X13335000Y5816600D03*
G01*
X13589000Y5816600D03*
G01*
X13843000Y5816600D03*
G01*
X14351000Y5816600D03*
G01*
X14605000Y5816600D03*
G01*
X14859000Y5816600D03*
G01*
X15113000Y5816600D03*
G01*
X15367000Y5816600D03*
G01*
X15621000Y5816600D03*
G01*
X15875000Y5816600D03*
G01*
X16129000Y5816600D03*
G01*
X16383000Y5816600D03*
G01*
X13081000Y7848600D03*
G01*
X13335000Y7848600D03*
G01*
X13589000Y7848600D03*
G01*
X13843000Y7848600D03*
G01*
X14097000Y7848600D03*
G01*
X14351000Y7848600D03*
G01*
X14605000Y7848600D03*
G01*
X14859000Y7848600D03*
G01*
X15113000Y7848600D03*
G01*
X15367000Y7848600D03*
G01*
X15621000Y7848600D03*
G01*
X15875000Y7848600D03*
G01*
X16129000Y7848600D03*
G01*
X16383000Y7848600D03*
G01*
X14097000Y5816600D03*
D11*
G01*
X12908000Y8928100D03*
G01*
X13108000Y8928100D03*
G01*
X13307999Y8928100D03*
G01*
X13507999Y8928100D03*
G01*
X14444700Y8928100D03*
G01*
X14644700Y8928100D03*
G01*
X14844699Y8928100D03*
G01*
X15044699Y8928100D03*
G01*
X15956000Y8928100D03*
G01*
X16156000Y8928100D03*
G01*
X16355999Y8928100D03*
G01*
X16555999Y8928100D03*
D13*
G01*
X17246600Y4813300D03*
G01*
X17500600Y4813300D03*
D14*
G01*
X13093700Y5080000D03*
G01*
X12890500Y5080000D03*
G01*
X13589000Y5080000D03*
G01*
X13779500Y5080000D03*
G01*
X14376400Y5080000D03*
G01*
X14592300Y5080000D03*
G01*
X15062200Y5080000D03*
G01*
X15265400Y5080000D03*
M02*
