G04 Layer: TopSilkLayer*
G04 EasyEDA v6.4.25, 2021-11-24T08:33:18+01:00*
G04 bd25dea3b5db44dbbe4f44f780b62c0e,10*
G04 Gerber Generator version 0.2*
G04 Scale: 100 percent, Rotated: No, Reflected: No *
G04 Dimensions in millimeters *
G04 leading zeros omitted , absolute positions ,4 integer and 5 decimal *
%FSLAX45Y45*%
%MOMM*%

%ADD10C,0.2540*%
%ADD18C,0.1200*%
%ADD19C,0.1524*%

%LPD*%
D19*
X10442956Y9043415D02*
G01*
X10401300Y8934450D01*
X10442956Y9043415D02*
G01*
X10484358Y8934450D01*
X10416793Y8970771D02*
G01*
X10468863Y8970771D01*
X10518647Y9043415D02*
G01*
X10518647Y8934450D01*
X10518647Y8934450D02*
G01*
X10581131Y8934450D01*
X10615422Y9043415D02*
G01*
X10615422Y8934450D01*
X10649711Y9043415D02*
G01*
X10649711Y8934450D01*
X10649711Y9043415D02*
G01*
X10691113Y8934450D01*
X10732770Y9043415D02*
G01*
X10691113Y8934450D01*
X10732770Y9043415D02*
G01*
X10732770Y8934450D01*
D18*
X10575010Y9185910D02*
G01*
X10568152Y9199626D01*
X10547578Y9219945D01*
X10690834Y9219945D01*
X11349710Y4613910D02*
G01*
X11342852Y4627626D01*
X11322278Y4647945D01*
X11465534Y4647945D01*
X17433010Y8690610D02*
G01*
X17426152Y8704326D01*
X17405578Y8724645D01*
X17548834Y8724645D01*
D19*
X17857216Y7315200D02*
G01*
X17748250Y7315200D01*
X17857216Y7315200D02*
G01*
X17748250Y7273544D01*
X17857216Y7232142D02*
G01*
X17748250Y7273544D01*
X17857216Y7232142D02*
G01*
X17748250Y7232142D01*
X17857216Y7197852D02*
G01*
X17748250Y7197852D01*
X17857216Y7124954D02*
G01*
X17784572Y7197852D01*
X17810479Y7171689D02*
G01*
X17748250Y7124954D01*
X17857216Y7090663D02*
G01*
X17748250Y7090663D01*
X17857216Y7090663D02*
G01*
X17857216Y7043928D01*
X17852136Y7028434D01*
X17846802Y7023100D01*
X17836388Y7018020D01*
X17825974Y7018020D01*
X17815559Y7023100D01*
X17810479Y7028434D01*
X17805400Y7043928D01*
X17805400Y7090663D01*
X17805400Y7054342D02*
G01*
X17748250Y7018020D01*
X17857216Y6983729D02*
G01*
X17748250Y6983729D01*
X17857216Y6983729D02*
G01*
X17857216Y6916165D01*
X17805400Y6983729D02*
G01*
X17805400Y6942073D01*
X17857216Y6850634D02*
G01*
X17852136Y6861047D01*
X17841722Y6871462D01*
X17831308Y6876795D01*
X17815559Y6881876D01*
X17789652Y6881876D01*
X17774158Y6876795D01*
X17763743Y6871462D01*
X17753329Y6861047D01*
X17748250Y6850634D01*
X17748250Y6830060D01*
X17753329Y6819645D01*
X17763743Y6809231D01*
X17774158Y6803897D01*
X17789652Y6798818D01*
X17815559Y6798818D01*
X17831308Y6803897D01*
X17841722Y6809231D01*
X17852136Y6819645D01*
X17857216Y6830060D01*
X17857216Y6850634D01*
X17857216Y6764528D02*
G01*
X17748250Y6691629D01*
X17857216Y6691629D02*
G01*
X17748250Y6764528D01*
X17836388Y6657339D02*
G01*
X17841722Y6647179D01*
X17857216Y6631431D01*
X17748250Y6631431D01*
X17831308Y6592062D02*
G01*
X17836388Y6592062D01*
X17846802Y6586728D01*
X17852136Y6581647D01*
X17857216Y6571234D01*
X17857216Y6550405D01*
X17852136Y6539992D01*
X17846802Y6534912D01*
X17836388Y6529578D01*
X17825974Y6529578D01*
X17815559Y6534912D01*
X17800066Y6545326D01*
X17748250Y6597142D01*
X17748250Y6524497D01*
X17857216Y6458965D02*
G01*
X17852136Y6474460D01*
X17836388Y6484873D01*
X17810479Y6490207D01*
X17794986Y6490207D01*
X17768824Y6484873D01*
X17753329Y6474460D01*
X17748250Y6458965D01*
X17748250Y6448552D01*
X17753329Y6433057D01*
X17768824Y6422644D01*
X17794986Y6417310D01*
X17810479Y6417310D01*
X17836388Y6422644D01*
X17852136Y6433057D01*
X17857216Y6448552D01*
X17857216Y6458965D01*
X17857216Y6352031D02*
G01*
X17852136Y6367526D01*
X17836388Y6377939D01*
X17810479Y6383020D01*
X17794986Y6383020D01*
X17768824Y6377939D01*
X17753329Y6367526D01*
X17748250Y6352031D01*
X17748250Y6341618D01*
X17753329Y6325870D01*
X17768824Y6315710D01*
X17794986Y6310376D01*
X17810479Y6310376D01*
X17836388Y6315710D01*
X17852136Y6325870D01*
X17857216Y6341618D01*
X17857216Y6352031D01*
D18*
X12861010Y8690610D02*
G01*
X12854152Y8704326D01*
X12833578Y8724645D01*
X12976834Y8724645D01*
X14397710Y8690610D02*
G01*
X14390852Y8704326D01*
X14370278Y8724645D01*
X14513534Y8724645D01*
X15909010Y8690610D02*
G01*
X15902152Y8704326D01*
X15881578Y8724645D01*
X16024834Y8724645D01*
X11122126Y9093454D02*
G01*
X11182070Y9093454D01*
X10661878Y9093454D02*
G01*
X10722076Y9093454D01*
X10636986Y9093454D02*
G01*
X10372064Y9093454D01*
X10372064Y9678415D01*
X11476964Y9678415D01*
X11476964Y9093454D01*
X11212042Y9093454D01*
X10746968Y9093454D02*
G01*
X11096980Y9093454D01*
X11896826Y4521454D02*
G01*
X11956770Y4521454D01*
X11436578Y4521454D02*
G01*
X11496776Y4521454D01*
X11411686Y4521454D02*
G01*
X11146764Y4521454D01*
X11146764Y5106415D01*
X12251664Y5106415D01*
X12251664Y4521454D01*
X11986742Y4521454D01*
X11521668Y4521454D02*
G01*
X11871680Y4521454D01*
X17980126Y8598154D02*
G01*
X18040070Y8598154D01*
X17519878Y8598154D02*
G01*
X17580076Y8598154D01*
X17494986Y8598154D02*
G01*
X17230064Y8598154D01*
X17230064Y9183115D01*
X18334964Y9183115D01*
X18334964Y8598154D01*
X18070042Y8598154D01*
X17604968Y8598154D02*
G01*
X17954980Y8598154D01*
D10*
X10922000Y7340600D02*
G01*
X10922000Y6324600D01*
X10668000Y6324600D01*
X10668000Y7340600D01*
X10922000Y7340600D01*
X17653000Y8102600D02*
G01*
X17653000Y5562600D01*
X10922000Y5562600D01*
X10922000Y8102600D01*
X17653000Y8102600D01*
D18*
X13408126Y8598154D02*
G01*
X13468070Y8598154D01*
X12947878Y8598154D02*
G01*
X13008076Y8598154D01*
X12922986Y8598154D02*
G01*
X12658064Y8598154D01*
X12658064Y9183115D01*
X13762964Y9183115D01*
X13762964Y8598154D01*
X13498042Y8598154D01*
X13032968Y8598154D02*
G01*
X13382980Y8598154D01*
X14944826Y8598154D02*
G01*
X15004770Y8598154D01*
X14484578Y8598154D02*
G01*
X14544776Y8598154D01*
X14459686Y8598154D02*
G01*
X14194764Y8598154D01*
X14194764Y9183115D01*
X15299664Y9183115D01*
X15299664Y8598154D01*
X15034742Y8598154D01*
X14569668Y8598154D02*
G01*
X14919680Y8598154D01*
X16456126Y8598154D02*
G01*
X16516070Y8598154D01*
X15995878Y8598154D02*
G01*
X16056076Y8598154D01*
X15970986Y8598154D02*
G01*
X15706064Y8598154D01*
X15706064Y9183115D01*
X16810964Y9183115D01*
X16810964Y8598154D01*
X16546042Y8598154D01*
X16080968Y8598154D02*
G01*
X16430980Y8598154D01*
M02*
